<?xml version="1.0" encoding="utf-8" standalone="no"?>
<!DOCTYPE svg PUBLIC "-//W3C//DTD SVG 1.1//EN"
  "http://www.w3.org/Graphics/SVG/1.1/DTD/svg11.dtd">
<svg xmlns:xlink="http://www.w3.org/1999/xlink" width="288pt" height="216pt" viewBox="0 0 288 216" xmlns="http://www.w3.org/2000/svg" version="1.1">
 <metadata>
  <rdf:RDF xmlns:dc="http://purl.org/dc/elements/1.1/" xmlns:cc="http://creativecommons.org/ns#" xmlns:rdf="http://www.w3.org/1999/02/22-rdf-syntax-ns#">
   <cc:Work>
    <dc:type rdf:resource="http://purl.org/dc/dcmitype/StillImage"/>
    <dc:date>2024-02-02T12:45:18.686399</dc:date>
    <dc:format>image/svg+xml</dc:format>
    <dc:creator>
     <cc:Agent>
      <dc:title>Matplotlib v3.7.2, https://matplotlib.org/</dc:title>
     </cc:Agent>
    </dc:creator>
   </cc:Work>
  </rdf:RDF>
 </metadata>
 <defs>
  <style type="text/css">*{stroke-linejoin: round; stroke-linecap: butt}</style>
 </defs>
 <g id="figure_1">
  <g id="patch_1">
   <path d="M 0 216 
L 288 216 
L 288 0 
L 0 0 
z
" style="fill: #ffffff"/>
  </g>
  <g id="axes_1">
   <g id="patch_2">
    <path d="M 36 192.24 
L 259.2 192.24 
L 259.2 25.92 
L 36 25.92 
z
" style="fill: #ffffff"/>
   </g>
   <g id="matplotlib.axis_1">
    <g id="xtick_1">
     <g id="line2d_1">
      <path d="M 63.9 192.24 
L 63.9 25.92 
" clip-path="url(#pb359db057c)" style="fill: none; stroke: #b0b0b0; stroke-width: 0.5; stroke-linecap: square"/>
     </g>
     <g id="line2d_2">
      <defs>
       <path id="mba17372ed9" d="M 0 0 
L 0 -3 
" style="stroke: #000000; stroke-width: 0.5"/>
      </defs>
      <g>
       <use xlink:href="#mba17372ed9" x="63.9" y="192.24" style="stroke: #000000; stroke-width: 0.5"/>
      </g>
     </g>
     <g id="line2d_3">
      <defs>
       <path id="m52790a6df1" d="M 0 0 
L 0 3 
" style="stroke: #000000; stroke-width: 0.5"/>
      </defs>
      <g>
       <use xlink:href="#m52790a6df1" x="63.9" y="25.92" style="stroke: #000000; stroke-width: 0.5"/>
      </g>
     </g>
     <g id="text_1">
      <!-- 1 -->
      <g transform="translate(61.782909 201.274802) scale(0.08 -0.08)">
       <defs>
        <path id="CMSS17-31" d="M 1818 4288 
L 1696 4288 
C 1350 3940 947 3890 538 3890 
L 538 3520 
C 723 3520 1024 3520 1325 3667 
L 1325 369 
L 570 369 
L 570 0 
L 2573 0 
L 2573 369 
L 1818 369 
L 1818 4288 
z
" transform="scale(0.015625)"/>
       </defs>
       <use xlink:href="#CMSS17-31" transform="scale(0.996264)"/>
      </g>
     </g>
    </g>
    <g id="xtick_2">
     <g id="line2d_4">
      <path d="M 119.7 192.24 
L 119.7 25.92 
" clip-path="url(#pb359db057c)" style="fill: none; stroke: #b0b0b0; stroke-width: 0.5; stroke-linecap: square"/>
     </g>
     <g id="line2d_5">
      <g>
       <use xlink:href="#mba17372ed9" x="119.7" y="192.24" style="stroke: #000000; stroke-width: 0.5"/>
      </g>
     </g>
     <g id="line2d_6">
      <g>
       <use xlink:href="#m52790a6df1" x="119.7" y="25.92" style="stroke: #000000; stroke-width: 0.5"/>
      </g>
     </g>
     <g id="text_2">
      <!-- 2 -->
      <g transform="translate(117.582909 201.274802) scale(0.08 -0.08)">
       <defs>
        <path id="CMSS17-32" d="M 1651 1357 
C 1830 1541 2099 1764 2285 1987 
C 2464 2204 2701 2511 2701 2957 
C 2701 3657 2227 4288 1421 4288 
C 787 4288 422 3893 250 3274 
L 499 2929 
C 640 3510 838 3880 1338 3880 
C 1888 3880 2195 3433 2195 2942 
C 2195 2355 1747 1901 1408 1563 
C 1030 1187 659 804 301 408 
L 301 0 
L 2701 0 
L 2701 433 
L 1613 433 
C 1536 433 1459 433 1382 433 
L 742 433 
L 742 439 
L 1651 1357 
z
" transform="scale(0.015625)"/>
       </defs>
       <use xlink:href="#CMSS17-32" transform="scale(0.996264)"/>
      </g>
     </g>
    </g>
    <g id="xtick_3">
     <g id="line2d_7">
      <path d="M 175.5 192.24 
L 175.5 25.92 
" clip-path="url(#pb359db057c)" style="fill: none; stroke: #b0b0b0; stroke-width: 0.5; stroke-linecap: square"/>
     </g>
     <g id="line2d_8">
      <g>
       <use xlink:href="#mba17372ed9" x="175.5" y="192.24" style="stroke: #000000; stroke-width: 0.5"/>
      </g>
     </g>
     <g id="line2d_9">
      <g>
       <use xlink:href="#m52790a6df1" x="175.5" y="25.92" style="stroke: #000000; stroke-width: 0.5"/>
      </g>
     </g>
     <g id="text_3">
      <!-- 3 -->
      <g transform="translate(173.382909 201.274802) scale(0.08 -0.08)">
       <defs>
        <path id="CMSS17-33" d="M 1005 2025 
L 1440 2025 
C 2042 2025 2214 1507 2214 1146 
C 2214 653 1933 267 1472 267 
C 1114 267 608 444 320 912 
C 275 691 275 678 250 526 
C 550 88 1037 -128 1485 -128 
C 2214 -128 2752 473 2752 1138 
C 2752 1638 2400 2057 1920 2215 
C 2304 2424 2586 2816 2586 3273 
C 2586 3805 2093 4229 1491 4229 
C 941 4229 512 3892 333 3530 
C 378 3468 493 3284 550 3189 
C 691 3562 1056 3840 1485 3840 
C 1843 3840 2080 3607 2080 3271 
C 2080 2923 1856 2543 1478 2455 
C 1453 2455 1056 2417 1005 2411 
L 1005 2025 
z
" transform="scale(0.015625)"/>
       </defs>
       <use xlink:href="#CMSS17-33" transform="scale(0.996264)"/>
      </g>
     </g>
    </g>
    <g id="xtick_4">
     <g id="line2d_10">
      <path d="M 231.3 192.24 
L 231.3 25.92 
" clip-path="url(#pb359db057c)" style="fill: none; stroke: #b0b0b0; stroke-width: 0.5; stroke-linecap: square"/>
     </g>
     <g id="line2d_11">
      <g>
       <use xlink:href="#mba17372ed9" x="231.3" y="192.24" style="stroke: #000000; stroke-width: 0.5"/>
      </g>
     </g>
     <g id="line2d_12">
      <g>
       <use xlink:href="#m52790a6df1" x="231.3" y="25.92" style="stroke: #000000; stroke-width: 0.5"/>
      </g>
     </g>
     <g id="text_4">
      <!-- 4 -->
      <g transform="translate(229.182909 201.274802) scale(0.08 -0.08)">
       <defs>
        <path id="CMSS17-34" d="M 2253 1088 
L 2835 1088 
L 2835 1477 
L 2253 1477 
L 2253 4192 
L 1690 4192 
L 166 1477 
L 166 1088 
L 1747 1088 
L 1747 0 
L 2253 0 
L 2253 1088 
z
M 659 1477 
C 1030 2127 1766 3439 1766 3885 
L 1766 1477 
L 659 1477 
z
" transform="scale(0.015625)"/>
       </defs>
       <use xlink:href="#CMSS17-34" transform="scale(0.996264)"/>
      </g>
     </g>
    </g>
    <g id="xtick_5">
     <g id="line2d_13">
      <defs>
       <path id="m8e615a088c" d="M 0 0 
L 0 -1.5 
" style="stroke: #000000; stroke-width: 0.5"/>
      </defs>
      <g>
       <use xlink:href="#m8e615a088c" x="41.58" y="192.24" style="stroke: #000000; stroke-width: 0.5"/>
      </g>
     </g>
     <g id="line2d_14">
      <defs>
       <path id="m504eeb6444" d="M 0 0 
L 0 1.5 
" style="stroke: #000000; stroke-width: 0.5"/>
      </defs>
      <g>
       <use xlink:href="#m504eeb6444" x="41.58" y="25.92" style="stroke: #000000; stroke-width: 0.5"/>
      </g>
     </g>
    </g>
    <g id="xtick_6">
     <g id="line2d_15">
      <g>
       <use xlink:href="#m8e615a088c" x="52.74" y="192.24" style="stroke: #000000; stroke-width: 0.5"/>
      </g>
     </g>
     <g id="line2d_16">
      <g>
       <use xlink:href="#m504eeb6444" x="52.74" y="25.92" style="stroke: #000000; stroke-width: 0.5"/>
      </g>
     </g>
    </g>
    <g id="xtick_7">
     <g id="line2d_17">
      <g>
       <use xlink:href="#m8e615a088c" x="75.06" y="192.24" style="stroke: #000000; stroke-width: 0.5"/>
      </g>
     </g>
     <g id="line2d_18">
      <g>
       <use xlink:href="#m504eeb6444" x="75.06" y="25.92" style="stroke: #000000; stroke-width: 0.5"/>
      </g>
     </g>
    </g>
    <g id="xtick_8">
     <g id="line2d_19">
      <g>
       <use xlink:href="#m8e615a088c" x="86.22" y="192.24" style="stroke: #000000; stroke-width: 0.5"/>
      </g>
     </g>
     <g id="line2d_20">
      <g>
       <use xlink:href="#m504eeb6444" x="86.22" y="25.92" style="stroke: #000000; stroke-width: 0.5"/>
      </g>
     </g>
    </g>
    <g id="xtick_9">
     <g id="line2d_21">
      <g>
       <use xlink:href="#m8e615a088c" x="97.38" y="192.24" style="stroke: #000000; stroke-width: 0.5"/>
      </g>
     </g>
     <g id="line2d_22">
      <g>
       <use xlink:href="#m504eeb6444" x="97.38" y="25.92" style="stroke: #000000; stroke-width: 0.5"/>
      </g>
     </g>
    </g>
    <g id="xtick_10">
     <g id="line2d_23">
      <g>
       <use xlink:href="#m8e615a088c" x="108.54" y="192.24" style="stroke: #000000; stroke-width: 0.5"/>
      </g>
     </g>
     <g id="line2d_24">
      <g>
       <use xlink:href="#m504eeb6444" x="108.54" y="25.92" style="stroke: #000000; stroke-width: 0.5"/>
      </g>
     </g>
    </g>
    <g id="xtick_11">
     <g id="line2d_25">
      <g>
       <use xlink:href="#m8e615a088c" x="130.86" y="192.24" style="stroke: #000000; stroke-width: 0.5"/>
      </g>
     </g>
     <g id="line2d_26">
      <g>
       <use xlink:href="#m504eeb6444" x="130.86" y="25.92" style="stroke: #000000; stroke-width: 0.5"/>
      </g>
     </g>
    </g>
    <g id="xtick_12">
     <g id="line2d_27">
      <g>
       <use xlink:href="#m8e615a088c" x="142.02" y="192.24" style="stroke: #000000; stroke-width: 0.5"/>
      </g>
     </g>
     <g id="line2d_28">
      <g>
       <use xlink:href="#m504eeb6444" x="142.02" y="25.92" style="stroke: #000000; stroke-width: 0.5"/>
      </g>
     </g>
    </g>
    <g id="xtick_13">
     <g id="line2d_29">
      <g>
       <use xlink:href="#m8e615a088c" x="153.18" y="192.24" style="stroke: #000000; stroke-width: 0.5"/>
      </g>
     </g>
     <g id="line2d_30">
      <g>
       <use xlink:href="#m504eeb6444" x="153.18" y="25.92" style="stroke: #000000; stroke-width: 0.5"/>
      </g>
     </g>
    </g>
    <g id="xtick_14">
     <g id="line2d_31">
      <g>
       <use xlink:href="#m8e615a088c" x="164.34" y="192.24" style="stroke: #000000; stroke-width: 0.5"/>
      </g>
     </g>
     <g id="line2d_32">
      <g>
       <use xlink:href="#m504eeb6444" x="164.34" y="25.92" style="stroke: #000000; stroke-width: 0.5"/>
      </g>
     </g>
    </g>
    <g id="xtick_15">
     <g id="line2d_33">
      <g>
       <use xlink:href="#m8e615a088c" x="186.66" y="192.24" style="stroke: #000000; stroke-width: 0.5"/>
      </g>
     </g>
     <g id="line2d_34">
      <g>
       <use xlink:href="#m504eeb6444" x="186.66" y="25.92" style="stroke: #000000; stroke-width: 0.5"/>
      </g>
     </g>
    </g>
    <g id="xtick_16">
     <g id="line2d_35">
      <g>
       <use xlink:href="#m8e615a088c" x="197.82" y="192.24" style="stroke: #000000; stroke-width: 0.5"/>
      </g>
     </g>
     <g id="line2d_36">
      <g>
       <use xlink:href="#m504eeb6444" x="197.82" y="25.92" style="stroke: #000000; stroke-width: 0.5"/>
      </g>
     </g>
    </g>
    <g id="xtick_17">
     <g id="line2d_37">
      <g>
       <use xlink:href="#m8e615a088c" x="208.98" y="192.24" style="stroke: #000000; stroke-width: 0.5"/>
      </g>
     </g>
     <g id="line2d_38">
      <g>
       <use xlink:href="#m504eeb6444" x="208.98" y="25.92" style="stroke: #000000; stroke-width: 0.5"/>
      </g>
     </g>
    </g>
    <g id="xtick_18">
     <g id="line2d_39">
      <g>
       <use xlink:href="#m8e615a088c" x="220.14" y="192.24" style="stroke: #000000; stroke-width: 0.5"/>
      </g>
     </g>
     <g id="line2d_40">
      <g>
       <use xlink:href="#m504eeb6444" x="220.14" y="25.92" style="stroke: #000000; stroke-width: 0.5"/>
      </g>
     </g>
    </g>
    <g id="xtick_19">
     <g id="line2d_41">
      <g>
       <use xlink:href="#m8e615a088c" x="242.46" y="192.24" style="stroke: #000000; stroke-width: 0.5"/>
      </g>
     </g>
     <g id="line2d_42">
      <g>
       <use xlink:href="#m504eeb6444" x="242.46" y="25.92" style="stroke: #000000; stroke-width: 0.5"/>
      </g>
     </g>
    </g>
    <g id="xtick_20">
     <g id="line2d_43">
      <g>
       <use xlink:href="#m8e615a088c" x="253.62" y="192.24" style="stroke: #000000; stroke-width: 0.5"/>
      </g>
     </g>
     <g id="line2d_44">
      <g>
       <use xlink:href="#m504eeb6444" x="253.62" y="25.92" style="stroke: #000000; stroke-width: 0.5"/>
      </g>
     </g>
    </g>
    <g id="text_5">
     <!-- Scenario -->
     <g transform="translate(132.808042 212.359349) scale(0.08 -0.08)">
      <defs>
       <path id="CMSS17-53" d="M 2797 4169 
C 2515 4334 2208 4480 1690 4480 
C 864 4480 333 3879 333 3266 
C 333 3025 403 2753 653 2475 
C 902 2196 1184 2121 1542 2033 
C 1690 1994 1939 1924 1984 1906 
C 2342 1767 2515 1444 2515 1140 
C 2515 742 2202 318 1645 318 
C 1453 318 890 318 358 819 
L 269 318 
C 794 -64 1363 -128 1651 -128 
C 2438 -128 3002 488 3002 1186 
C 3002 1440 2925 1763 2656 2061 
C 2394 2347 2163 2410 1638 2549 
C 1338 2626 1146 2677 986 2873 
C 877 3013 819 3146 819 3317 
C 819 3673 1126 4060 1690 4060 
C 1971 4060 2336 4002 2707 3660 
L 2797 4169 
z
" transform="scale(0.015625)"/>
       <path id="CMSS17-63" d="M 2464 2541 
C 2464 2585 2170 2714 2093 2739 
C 1882 2816 1613 2816 1542 2816 
C 710 2816 211 2093 211 1363 
C 211 595 768 -64 1517 -64 
C 1946 -64 2253 76 2502 242 
L 2464 664 
C 2189 453 1869 337 1523 337 
C 1024 337 698 774 698 1369 
C 698 1831 909 2414 1549 2414 
C 1901 2414 2099 2343 2394 2145 
L 2464 2541 
z
" transform="scale(0.015625)"/>
       <path id="CMSS17-65" d="M 2502 1377 
C 2502 1590 2490 2003 2285 2345 
C 2061 2713 1696 2816 1421 2816 
C 755 2816 192 2188 192 1375 
C 192 582 774 -64 1510 -64 
C 1798 -64 2150 19 2470 248 
C 2470 274 2458 414 2451 420 
C 2451 433 2432 630 2432 656 
C 2125 407 1773 325 1517 325 
C 1107 325 666 667 646 1377 
L 2502 1377 
z
M 698 1728 
C 781 2084 1062 2421 1421 2421 
C 1517 2421 1965 2421 2080 1728 
L 698 1728 
z
" transform="scale(0.015625)"/>
       <path id="CMSS17-6e" d="M 2618 1877 
C 2618 2283 2522 2816 1798 2816 
C 1389 2816 1120 2606 941 2389 
L 941 2758 
L 474 2758 
L 474 0 
L 960 0 
L 960 1559 
C 960 1964 1114 2428 1549 2428 
C 2112 2428 2131 2048 2131 1829 
L 2131 0 
L 2618 0 
L 2618 1877 
z
" transform="scale(0.015625)"/>
       <path id="CMSS17-61" d="M 2406 1791 
C 2406 2392 1978 2808 1402 2808 
C 1120 2808 813 2757 461 2553 
L 499 2135 
C 659 2248 934 2432 1395 2432 
C 1722 2432 1920 2180 1920 1782 
L 1920 1536 
C 896 1536 256 1238 256 726 
C 256 461 416 -64 947 -64 
C 1043 -64 1562 -64 1933 217 
L 1933 -19 
L 2406 -19 
L 2406 1791 
z
M 1920 816 
C 1920 701 1920 548 1728 434 
C 1562 325 1350 325 1261 325 
C 941 325 723 511 723 744 
C 723 1211 1722 1211 1920 1211 
L 1920 816 
z
" transform="scale(0.015625)"/>
       <path id="CMSS17-72" d="M 954 1363 
C 954 1965 1395 2368 1958 2368 
L 1958 2789 
C 1549 2789 1165 2585 934 2253 
L 934 2758 
L 480 2758 
L 480 0 
L 954 0 
L 954 1363 
z
" transform="scale(0.015625)"/>
       <path id="CMSS17-69" d="M 979 4183 
L 442 4183 
L 442 3648 
L 979 3648 
L 979 4183 
z
M 947 2739 
L 474 2739 
L 474 0 
L 947 0 
L 947 2739 
z
" transform="scale(0.015625)"/>
       <path id="CMSS17-6f" d="M 2829 1356 
C 2829 2176 2221 2816 1504 2816 
C 768 2816 173 2157 173 1356 
C 173 544 787 -64 1498 -64 
C 2227 -64 2829 563 2829 1356 
z
M 1504 337 
C 1050 337 659 709 659 1408 
C 659 2151 1114 2427 1498 2427 
C 1914 2427 2342 2126 2342 1408 
C 2342 683 1926 337 1504 337 
z
" transform="scale(0.015625)"/>
      </defs>
      <use xlink:href="#CMSS17-53" transform="scale(0.996264)"/>
      <use xlink:href="#CMSS17-63" transform="translate(52.048516 0) scale(0.996264)"/>
      <use xlink:href="#CMSS17-65" transform="translate(93.687338 0) scale(0.996264)"/>
      <use xlink:href="#CMSS17-6e" transform="translate(135.32616 0) scale(0.996264)"/>
      <use xlink:href="#CMSS17-61" transform="translate(183.531103 0) scale(0.996264)"/>
      <use xlink:href="#CMSS17-72" transform="translate(225.85057 0) scale(0.996264)"/>
      <use xlink:href="#CMSS17-69" transform="translate(257.760343 0) scale(0.996264)"/>
      <use xlink:href="#CMSS17-6f" transform="translate(279.941066 0) scale(0.996264)"/>
     </g>
    </g>
   </g>
   <g id="matplotlib.axis_2">
    <g id="ytick_1">
     <g id="line2d_45">
      <path d="M 36 185.902388 
L 259.2 185.902388 
" clip-path="url(#pb359db057c)" style="fill: none; stroke: #b0b0b0; stroke-width: 0.5; stroke-linecap: square"/>
     </g>
     <g id="line2d_46">
      <defs>
       <path id="mcce3087889" d="M 0 0 
L 3 0 
" style="stroke: #000000; stroke-width: 0.5"/>
      </defs>
      <g>
       <use xlink:href="#mcce3087889" x="36" y="185.902388" style="stroke: #000000; stroke-width: 0.5"/>
      </g>
     </g>
     <g id="line2d_47">
      <defs>
       <path id="mfa94a56a97" d="M 0 0 
L -3 0 
" style="stroke: #000000; stroke-width: 0.5"/>
      </defs>
      <g>
       <use xlink:href="#mfa94a56a97" x="259.2" y="185.902388" style="stroke: #000000; stroke-width: 0.5"/>
      </g>
     </g>
     <g id="text_6">
      <!-- $\mathdefault{250}$ -->
      <g transform="translate(19.797451 188.669789) scale(0.08 -0.08)">
       <defs>
        <path id="CMR17-32" d="M 2669 989 
L 2554 989 
C 2490 536 2438 459 2413 420 
C 2381 369 1920 369 1830 369 
L 602 369 
C 832 619 1280 1072 1824 1597 
C 2214 1967 2669 2402 2669 3035 
C 2669 3790 2067 4224 1395 4224 
C 691 4224 262 3604 262 3030 
C 262 2780 448 2748 525 2748 
C 589 2748 781 2787 781 3010 
C 781 3207 614 3264 525 3264 
C 486 3264 448 3258 422 3245 
C 544 3790 915 4058 1306 4058 
C 1862 4058 2227 3617 2227 3035 
C 2227 2479 1901 2000 1536 1584 
L 262 146 
L 262 0 
L 2515 0 
L 2669 989 
z
" transform="scale(0.015625)"/>
        <path id="CMR17-35" d="M 730 3692 
C 794 3666 1056 3584 1325 3584 
C 1920 3584 2246 3911 2432 4100 
C 2432 4157 2432 4192 2394 4192 
C 2387 4192 2374 4192 2323 4163 
C 2099 4058 1837 3973 1517 3973 
C 1325 3973 1037 3999 723 4139 
C 653 4171 640 4171 634 4171 
C 602 4171 595 4164 595 4037 
L 595 2203 
C 595 2089 595 2057 659 2057 
C 691 2057 704 2070 736 2114 
C 941 2401 1222 2522 1542 2522 
C 1766 2522 2246 2382 2246 1289 
C 2246 1085 2246 715 2054 421 
C 1894 159 1645 25 1370 25 
C 947 25 518 320 403 814 
C 429 807 480 795 506 795 
C 589 795 749 840 749 1038 
C 749 1210 627 1280 506 1280 
C 358 1280 262 1190 262 1011 
C 262 454 704 -128 1382 -128 
C 2042 -128 2669 440 2669 1264 
C 2669 2030 2170 2624 1549 2624 
C 1222 2624 947 2503 730 2274 
L 730 3692 
z
" transform="scale(0.015625)"/>
        <path id="CMR17-30" d="M 2688 2025 
C 2688 2416 2682 3080 2413 3591 
C 2176 4039 1798 4198 1466 4198 
C 1158 4198 768 4058 525 3597 
C 269 3118 243 2524 243 2025 
C 243 1661 250 1106 448 619 
C 723 -39 1216 -128 1466 -128 
C 1760 -128 2208 -7 2470 600 
C 2662 1042 2688 1559 2688 2025 
z
M 1466 -26 
C 1056 -26 813 325 723 812 
C 653 1188 653 1738 653 2096 
C 653 2588 653 2997 736 3387 
C 858 3929 1216 4096 1466 4096 
C 1728 4096 2067 3923 2189 3400 
C 2272 3036 2278 2607 2278 2096 
C 2278 1680 2278 1169 2202 792 
C 2067 95 1690 -26 1466 -26 
z
" transform="scale(0.015625)"/>
       </defs>
       <use xlink:href="#CMR17-32" transform="scale(0.996264)"/>
       <use xlink:href="#CMR17-35" transform="translate(45.690477 0) scale(0.996264)"/>
       <use xlink:href="#CMR17-30" transform="translate(91.380954 0) scale(0.996264)"/>
      </g>
     </g>
    </g>
    <g id="ytick_2">
     <g id="line2d_48">
      <path d="M 36 162.394925 
L 259.2 162.394925 
" clip-path="url(#pb359db057c)" style="fill: none; stroke: #b0b0b0; stroke-width: 0.5; stroke-linecap: square"/>
     </g>
     <g id="line2d_49">
      <g>
       <use xlink:href="#mcce3087889" x="36" y="162.394925" style="stroke: #000000; stroke-width: 0.5"/>
      </g>
     </g>
     <g id="line2d_50">
      <g>
       <use xlink:href="#mfa94a56a97" x="259.2" y="162.394925" style="stroke: #000000; stroke-width: 0.5"/>
      </g>
     </g>
     <g id="text_7">
      <!-- $\mathdefault{500}$ -->
      <g transform="translate(19.797451 165.162326) scale(0.08 -0.08)">
       <use xlink:href="#CMR17-35" transform="scale(0.996264)"/>
       <use xlink:href="#CMR17-30" transform="translate(45.690477 0) scale(0.996264)"/>
       <use xlink:href="#CMR17-30" transform="translate(91.380954 0) scale(0.996264)"/>
      </g>
     </g>
    </g>
    <g id="ytick_3">
     <g id="line2d_51">
      <path d="M 36 138.887463 
L 259.2 138.887463 
" clip-path="url(#pb359db057c)" style="fill: none; stroke: #b0b0b0; stroke-width: 0.5; stroke-linecap: square"/>
     </g>
     <g id="line2d_52">
      <g>
       <use xlink:href="#mcce3087889" x="36" y="138.887463" style="stroke: #000000; stroke-width: 0.5"/>
      </g>
     </g>
     <g id="line2d_53">
      <g>
       <use xlink:href="#mfa94a56a97" x="259.2" y="138.887463" style="stroke: #000000; stroke-width: 0.5"/>
      </g>
     </g>
     <g id="text_8">
      <!-- $\mathdefault{750}$ -->
      <g transform="translate(19.797451 141.654864) scale(0.08 -0.08)">
       <defs>
        <path id="CMR17-37" d="M 2886 3941 
L 2886 4081 
L 1382 4081 
C 634 4081 621 4165 595 4288 
L 480 4288 
L 294 3094 
L 410 3094 
C 429 3215 474 3540 550 3661 
C 589 3712 1062 3712 1171 3712 
L 2579 3712 
L 1869 2661 
C 1395 1954 1069 999 1069 165 
C 1069 89 1069 -128 1299 -128 
C 1530 -128 1530 89 1530 171 
L 1530 465 
C 1530 1508 1709 2196 2003 2636 
L 2886 3941 
z
" transform="scale(0.015625)"/>
       </defs>
       <use xlink:href="#CMR17-37" transform="scale(0.996264)"/>
       <use xlink:href="#CMR17-35" transform="translate(45.690477 0) scale(0.996264)"/>
       <use xlink:href="#CMR17-30" transform="translate(91.380954 0) scale(0.996264)"/>
      </g>
     </g>
    </g>
    <g id="ytick_4">
     <g id="line2d_54">
      <path d="M 36 115.38 
L 259.2 115.38 
" clip-path="url(#pb359db057c)" style="fill: none; stroke: #b0b0b0; stroke-width: 0.5; stroke-linecap: square"/>
     </g>
     <g id="line2d_55">
      <g>
       <use xlink:href="#mcce3087889" x="36" y="115.38" style="stroke: #000000; stroke-width: 0.5"/>
      </g>
     </g>
     <g id="line2d_56">
      <g>
       <use xlink:href="#mfa94a56a97" x="259.2" y="115.38" style="stroke: #000000; stroke-width: 0.5"/>
      </g>
     </g>
     <g id="text_9">
      <!-- $\mathdefault{1000}$ -->
      <g transform="translate(15.563269 118.147401) scale(0.08 -0.08)">
       <defs>
        <path id="CMR17-31" d="M 1702 4058 
C 1702 4192 1696 4192 1606 4192 
C 1357 3916 979 3827 621 3827 
C 602 3827 570 3827 563 3808 
C 557 3795 557 3782 557 3648 
C 755 3648 1088 3686 1344 3839 
L 1344 461 
C 1344 236 1331 160 781 160 
L 589 160 
L 589 0 
C 896 0 1216 0 1523 0 
C 1830 0 2150 0 2458 0 
L 2458 160 
L 2266 160 
C 1715 160 1702 230 1702 458 
L 1702 4058 
z
" transform="scale(0.015625)"/>
       </defs>
       <use xlink:href="#CMR17-31" transform="scale(0.996264)"/>
       <use xlink:href="#CMR17-30" transform="translate(45.690477 0) scale(0.996264)"/>
       <use xlink:href="#CMR17-30" transform="translate(91.380954 0) scale(0.996264)"/>
       <use xlink:href="#CMR17-30" transform="translate(137.071431 0) scale(0.996264)"/>
      </g>
     </g>
    </g>
    <g id="ytick_5">
     <g id="line2d_57">
      <path d="M 36 91.872537 
L 259.2 91.872537 
" clip-path="url(#pb359db057c)" style="fill: none; stroke: #b0b0b0; stroke-width: 0.5; stroke-linecap: square"/>
     </g>
     <g id="line2d_58">
      <g>
       <use xlink:href="#mcce3087889" x="36" y="91.872537" style="stroke: #000000; stroke-width: 0.5"/>
      </g>
     </g>
     <g id="line2d_59">
      <g>
       <use xlink:href="#mfa94a56a97" x="259.2" y="91.872537" style="stroke: #000000; stroke-width: 0.5"/>
      </g>
     </g>
     <g id="text_10">
      <!-- $\mathdefault{1250}$ -->
      <g transform="translate(15.563269 94.639938) scale(0.08 -0.08)">
       <use xlink:href="#CMR17-31" transform="scale(0.996264)"/>
       <use xlink:href="#CMR17-32" transform="translate(45.690477 0) scale(0.996264)"/>
       <use xlink:href="#CMR17-35" transform="translate(91.380954 0) scale(0.996264)"/>
       <use xlink:href="#CMR17-30" transform="translate(137.071431 0) scale(0.996264)"/>
      </g>
     </g>
    </g>
    <g id="ytick_6">
     <g id="line2d_60">
      <path d="M 36 68.365075 
L 259.2 68.365075 
" clip-path="url(#pb359db057c)" style="fill: none; stroke: #b0b0b0; stroke-width: 0.5; stroke-linecap: square"/>
     </g>
     <g id="line2d_61">
      <g>
       <use xlink:href="#mcce3087889" x="36" y="68.365075" style="stroke: #000000; stroke-width: 0.5"/>
      </g>
     </g>
     <g id="line2d_62">
      <g>
       <use xlink:href="#mfa94a56a97" x="259.2" y="68.365075" style="stroke: #000000; stroke-width: 0.5"/>
      </g>
     </g>
     <g id="text_11">
      <!-- $\mathdefault{1500}$ -->
      <g transform="translate(15.563269 71.132475) scale(0.08 -0.08)">
       <use xlink:href="#CMR17-31" transform="scale(0.996264)"/>
       <use xlink:href="#CMR17-35" transform="translate(45.690477 0) scale(0.996264)"/>
       <use xlink:href="#CMR17-30" transform="translate(91.380954 0) scale(0.996264)"/>
       <use xlink:href="#CMR17-30" transform="translate(137.071431 0) scale(0.996264)"/>
      </g>
     </g>
    </g>
    <g id="ytick_7">
     <g id="line2d_63">
      <path d="M 36 44.857612 
L 259.2 44.857612 
" clip-path="url(#pb359db057c)" style="fill: none; stroke: #b0b0b0; stroke-width: 0.5; stroke-linecap: square"/>
     </g>
     <g id="line2d_64">
      <g>
       <use xlink:href="#mcce3087889" x="36" y="44.857612" style="stroke: #000000; stroke-width: 0.5"/>
      </g>
     </g>
     <g id="line2d_65">
      <g>
       <use xlink:href="#mfa94a56a97" x="259.2" y="44.857612" style="stroke: #000000; stroke-width: 0.5"/>
      </g>
     </g>
     <g id="text_12">
      <!-- $\mathdefault{1750}$ -->
      <g transform="translate(15.563269 47.625013) scale(0.08 -0.08)">
       <use xlink:href="#CMR17-31" transform="scale(0.996264)"/>
       <use xlink:href="#CMR17-37" transform="translate(45.690477 0) scale(0.996264)"/>
       <use xlink:href="#CMR17-35" transform="translate(91.380954 0) scale(0.996264)"/>
       <use xlink:href="#CMR17-30" transform="translate(137.071431 0) scale(0.996264)"/>
      </g>
     </g>
    </g>
    <g id="ytick_8">
     <g id="line2d_66">
      <defs>
       <path id="mdbe1b74d2d" d="M 0 0 
L 1.5 0 
" style="stroke: #000000; stroke-width: 0.5"/>
      </defs>
      <g>
       <use xlink:href="#mdbe1b74d2d" x="36" y="190.603881" style="stroke: #000000; stroke-width: 0.5"/>
      </g>
     </g>
     <g id="line2d_67">
      <defs>
       <path id="md03b2bc8f7" d="M 0 0 
L -1.5 0 
" style="stroke: #000000; stroke-width: 0.5"/>
      </defs>
      <g>
       <use xlink:href="#md03b2bc8f7" x="259.2" y="190.603881" style="stroke: #000000; stroke-width: 0.5"/>
      </g>
     </g>
    </g>
    <g id="ytick_9">
     <g id="line2d_68">
      <g>
       <use xlink:href="#mdbe1b74d2d" x="36" y="181.200896" style="stroke: #000000; stroke-width: 0.5"/>
      </g>
     </g>
     <g id="line2d_69">
      <g>
       <use xlink:href="#md03b2bc8f7" x="259.2" y="181.200896" style="stroke: #000000; stroke-width: 0.5"/>
      </g>
     </g>
    </g>
    <g id="ytick_10">
     <g id="line2d_70">
      <g>
       <use xlink:href="#mdbe1b74d2d" x="36" y="176.499403" style="stroke: #000000; stroke-width: 0.5"/>
      </g>
     </g>
     <g id="line2d_71">
      <g>
       <use xlink:href="#md03b2bc8f7" x="259.2" y="176.499403" style="stroke: #000000; stroke-width: 0.5"/>
      </g>
     </g>
    </g>
    <g id="ytick_11">
     <g id="line2d_72">
      <g>
       <use xlink:href="#mdbe1b74d2d" x="36" y="171.79791" style="stroke: #000000; stroke-width: 0.5"/>
      </g>
     </g>
     <g id="line2d_73">
      <g>
       <use xlink:href="#md03b2bc8f7" x="259.2" y="171.79791" style="stroke: #000000; stroke-width: 0.5"/>
      </g>
     </g>
    </g>
    <g id="ytick_12">
     <g id="line2d_74">
      <g>
       <use xlink:href="#mdbe1b74d2d" x="36" y="167.096418" style="stroke: #000000; stroke-width: 0.5"/>
      </g>
     </g>
     <g id="line2d_75">
      <g>
       <use xlink:href="#md03b2bc8f7" x="259.2" y="167.096418" style="stroke: #000000; stroke-width: 0.5"/>
      </g>
     </g>
    </g>
    <g id="ytick_13">
     <g id="line2d_76">
      <g>
       <use xlink:href="#mdbe1b74d2d" x="36" y="157.693433" style="stroke: #000000; stroke-width: 0.5"/>
      </g>
     </g>
     <g id="line2d_77">
      <g>
       <use xlink:href="#md03b2bc8f7" x="259.2" y="157.693433" style="stroke: #000000; stroke-width: 0.5"/>
      </g>
     </g>
    </g>
    <g id="ytick_14">
     <g id="line2d_78">
      <g>
       <use xlink:href="#mdbe1b74d2d" x="36" y="152.99194" style="stroke: #000000; stroke-width: 0.5"/>
      </g>
     </g>
     <g id="line2d_79">
      <g>
       <use xlink:href="#md03b2bc8f7" x="259.2" y="152.99194" style="stroke: #000000; stroke-width: 0.5"/>
      </g>
     </g>
    </g>
    <g id="ytick_15">
     <g id="line2d_80">
      <g>
       <use xlink:href="#mdbe1b74d2d" x="36" y="148.290448" style="stroke: #000000; stroke-width: 0.5"/>
      </g>
     </g>
     <g id="line2d_81">
      <g>
       <use xlink:href="#md03b2bc8f7" x="259.2" y="148.290448" style="stroke: #000000; stroke-width: 0.5"/>
      </g>
     </g>
    </g>
    <g id="ytick_16">
     <g id="line2d_82">
      <g>
       <use xlink:href="#mdbe1b74d2d" x="36" y="143.588955" style="stroke: #000000; stroke-width: 0.5"/>
      </g>
     </g>
     <g id="line2d_83">
      <g>
       <use xlink:href="#md03b2bc8f7" x="259.2" y="143.588955" style="stroke: #000000; stroke-width: 0.5"/>
      </g>
     </g>
    </g>
    <g id="ytick_17">
     <g id="line2d_84">
      <g>
       <use xlink:href="#mdbe1b74d2d" x="36" y="134.18597" style="stroke: #000000; stroke-width: 0.5"/>
      </g>
     </g>
     <g id="line2d_85">
      <g>
       <use xlink:href="#md03b2bc8f7" x="259.2" y="134.18597" style="stroke: #000000; stroke-width: 0.5"/>
      </g>
     </g>
    </g>
    <g id="ytick_18">
     <g id="line2d_86">
      <g>
       <use xlink:href="#mdbe1b74d2d" x="36" y="129.484478" style="stroke: #000000; stroke-width: 0.5"/>
      </g>
     </g>
     <g id="line2d_87">
      <g>
       <use xlink:href="#md03b2bc8f7" x="259.2" y="129.484478" style="stroke: #000000; stroke-width: 0.5"/>
      </g>
     </g>
    </g>
    <g id="ytick_19">
     <g id="line2d_88">
      <g>
       <use xlink:href="#mdbe1b74d2d" x="36" y="124.782985" style="stroke: #000000; stroke-width: 0.5"/>
      </g>
     </g>
     <g id="line2d_89">
      <g>
       <use xlink:href="#md03b2bc8f7" x="259.2" y="124.782985" style="stroke: #000000; stroke-width: 0.5"/>
      </g>
     </g>
    </g>
    <g id="ytick_20">
     <g id="line2d_90">
      <g>
       <use xlink:href="#mdbe1b74d2d" x="36" y="120.081493" style="stroke: #000000; stroke-width: 0.5"/>
      </g>
     </g>
     <g id="line2d_91">
      <g>
       <use xlink:href="#md03b2bc8f7" x="259.2" y="120.081493" style="stroke: #000000; stroke-width: 0.5"/>
      </g>
     </g>
    </g>
    <g id="ytick_21">
     <g id="line2d_92">
      <g>
       <use xlink:href="#mdbe1b74d2d" x="36" y="110.678507" style="stroke: #000000; stroke-width: 0.5"/>
      </g>
     </g>
     <g id="line2d_93">
      <g>
       <use xlink:href="#md03b2bc8f7" x="259.2" y="110.678507" style="stroke: #000000; stroke-width: 0.5"/>
      </g>
     </g>
    </g>
    <g id="ytick_22">
     <g id="line2d_94">
      <g>
       <use xlink:href="#mdbe1b74d2d" x="36" y="105.977015" style="stroke: #000000; stroke-width: 0.5"/>
      </g>
     </g>
     <g id="line2d_95">
      <g>
       <use xlink:href="#md03b2bc8f7" x="259.2" y="105.977015" style="stroke: #000000; stroke-width: 0.5"/>
      </g>
     </g>
    </g>
    <g id="ytick_23">
     <g id="line2d_96">
      <g>
       <use xlink:href="#mdbe1b74d2d" x="36" y="101.275522" style="stroke: #000000; stroke-width: 0.5"/>
      </g>
     </g>
     <g id="line2d_97">
      <g>
       <use xlink:href="#md03b2bc8f7" x="259.2" y="101.275522" style="stroke: #000000; stroke-width: 0.5"/>
      </g>
     </g>
    </g>
    <g id="ytick_24">
     <g id="line2d_98">
      <g>
       <use xlink:href="#mdbe1b74d2d" x="36" y="96.57403" style="stroke: #000000; stroke-width: 0.5"/>
      </g>
     </g>
     <g id="line2d_99">
      <g>
       <use xlink:href="#md03b2bc8f7" x="259.2" y="96.57403" style="stroke: #000000; stroke-width: 0.5"/>
      </g>
     </g>
    </g>
    <g id="ytick_25">
     <g id="line2d_100">
      <g>
       <use xlink:href="#mdbe1b74d2d" x="36" y="87.171045" style="stroke: #000000; stroke-width: 0.5"/>
      </g>
     </g>
     <g id="line2d_101">
      <g>
       <use xlink:href="#md03b2bc8f7" x="259.2" y="87.171045" style="stroke: #000000; stroke-width: 0.5"/>
      </g>
     </g>
    </g>
    <g id="ytick_26">
     <g id="line2d_102">
      <g>
       <use xlink:href="#mdbe1b74d2d" x="36" y="82.469552" style="stroke: #000000; stroke-width: 0.5"/>
      </g>
     </g>
     <g id="line2d_103">
      <g>
       <use xlink:href="#md03b2bc8f7" x="259.2" y="82.469552" style="stroke: #000000; stroke-width: 0.5"/>
      </g>
     </g>
    </g>
    <g id="ytick_27">
     <g id="line2d_104">
      <g>
       <use xlink:href="#mdbe1b74d2d" x="36" y="77.76806" style="stroke: #000000; stroke-width: 0.5"/>
      </g>
     </g>
     <g id="line2d_105">
      <g>
       <use xlink:href="#md03b2bc8f7" x="259.2" y="77.76806" style="stroke: #000000; stroke-width: 0.5"/>
      </g>
     </g>
    </g>
    <g id="ytick_28">
     <g id="line2d_106">
      <g>
       <use xlink:href="#mdbe1b74d2d" x="36" y="73.066567" style="stroke: #000000; stroke-width: 0.5"/>
      </g>
     </g>
     <g id="line2d_107">
      <g>
       <use xlink:href="#md03b2bc8f7" x="259.2" y="73.066567" style="stroke: #000000; stroke-width: 0.5"/>
      </g>
     </g>
    </g>
    <g id="ytick_29">
     <g id="line2d_108">
      <g>
       <use xlink:href="#mdbe1b74d2d" x="36" y="63.663582" style="stroke: #000000; stroke-width: 0.5"/>
      </g>
     </g>
     <g id="line2d_109">
      <g>
       <use xlink:href="#md03b2bc8f7" x="259.2" y="63.663582" style="stroke: #000000; stroke-width: 0.5"/>
      </g>
     </g>
    </g>
    <g id="ytick_30">
     <g id="line2d_110">
      <g>
       <use xlink:href="#mdbe1b74d2d" x="36" y="58.96209" style="stroke: #000000; stroke-width: 0.5"/>
      </g>
     </g>
     <g id="line2d_111">
      <g>
       <use xlink:href="#md03b2bc8f7" x="259.2" y="58.96209" style="stroke: #000000; stroke-width: 0.5"/>
      </g>
     </g>
    </g>
    <g id="ytick_31">
     <g id="line2d_112">
      <g>
       <use xlink:href="#mdbe1b74d2d" x="36" y="54.260597" style="stroke: #000000; stroke-width: 0.5"/>
      </g>
     </g>
     <g id="line2d_113">
      <g>
       <use xlink:href="#md03b2bc8f7" x="259.2" y="54.260597" style="stroke: #000000; stroke-width: 0.5"/>
      </g>
     </g>
    </g>
    <g id="ytick_32">
     <g id="line2d_114">
      <g>
       <use xlink:href="#mdbe1b74d2d" x="36" y="49.559104" style="stroke: #000000; stroke-width: 0.5"/>
      </g>
     </g>
     <g id="line2d_115">
      <g>
       <use xlink:href="#md03b2bc8f7" x="259.2" y="49.559104" style="stroke: #000000; stroke-width: 0.5"/>
      </g>
     </g>
    </g>
    <g id="ytick_33">
     <g id="line2d_116">
      <g>
       <use xlink:href="#mdbe1b74d2d" x="36" y="40.156119" style="stroke: #000000; stroke-width: 0.5"/>
      </g>
     </g>
     <g id="line2d_117">
      <g>
       <use xlink:href="#md03b2bc8f7" x="259.2" y="40.156119" style="stroke: #000000; stroke-width: 0.5"/>
      </g>
     </g>
    </g>
    <g id="ytick_34">
     <g id="line2d_118">
      <g>
       <use xlink:href="#mdbe1b74d2d" x="36" y="35.454627" style="stroke: #000000; stroke-width: 0.5"/>
      </g>
     </g>
     <g id="line2d_119">
      <g>
       <use xlink:href="#md03b2bc8f7" x="259.2" y="35.454627" style="stroke: #000000; stroke-width: 0.5"/>
      </g>
     </g>
    </g>
    <g id="ytick_35">
     <g id="line2d_120">
      <g>
       <use xlink:href="#mdbe1b74d2d" x="36" y="30.753134" style="stroke: #000000; stroke-width: 0.5"/>
      </g>
     </g>
     <g id="line2d_121">
      <g>
       <use xlink:href="#md03b2bc8f7" x="259.2" y="30.753134" style="stroke: #000000; stroke-width: 0.5"/>
      </g>
     </g>
    </g>
    <g id="ytick_36">
     <g id="line2d_122">
      <g>
       <use xlink:href="#mdbe1b74d2d" x="36" y="26.051642" style="stroke: #000000; stroke-width: 0.5"/>
      </g>
     </g>
     <g id="line2d_123">
      <g>
       <use xlink:href="#md03b2bc8f7" x="259.2" y="26.051642" style="stroke: #000000; stroke-width: 0.5"/>
      </g>
     </g>
    </g>
    <g id="text_13">
     <!-- Message propagation time (ms) -->
     <g transform="translate(9.570741 165.077726) rotate(-90) scale(0.08 -0.08)">
      <defs>
       <path id="CMSS17-4d" d="M 3194 2371 
L 2886 1473 
C 2835 1307 2662 791 2624 587 
L 2618 587 
C 2598 715 2560 849 2458 1174 
C 2400 1365 2336 1562 2272 1741 
L 1325 4416 
L 576 4416 
L 576 0 
L 1075 0 
L 1075 3900 
L 1082 3900 
C 1082 3894 1139 3613 1530 2499 
L 2374 96 
L 2848 96 
L 3610 2231 
C 3661 2378 3821 2843 3891 3066 
C 3955 3257 4115 3728 4154 3913 
L 4160 3913 
L 4160 0 
L 4666 0 
L 4666 4416 
L 3923 4416 
L 3194 2371 
z
" transform="scale(0.015625)"/>
       <path id="CMSS17-73" d="M 2061 2627 
C 1683 2807 1389 2807 1197 2807 
C 742 2807 198 2648 198 2003 
C 198 1359 902 1218 1094 1179 
C 1389 1122 1715 1058 1715 740 
C 1715 337 1254 337 1171 337 
C 915 337 563 407 243 638 
L 166 210 
C 531 0 883 -64 1178 -64 
C 1965 -64 2163 416 2163 781 
C 2163 1094 1984 1305 1862 1401 
C 1651 1568 1574 1587 1050 1696 
C 960 1709 646 1779 646 2066 
C 646 2432 1050 2432 1139 2432 
C 1555 2432 1811 2303 1984 2208 
L 2061 2627 
z
" transform="scale(0.015625)"/>
       <path id="CMSS17-67" d="M 2848 2808 
C 2483 2808 2170 2738 1914 2617 
C 1702 2777 1485 2808 1338 2808 
C 781 2808 358 2349 358 1814 
C 358 1468 550 1207 563 1195 
C 448 1035 384 863 384 672 
C 384 448 474 289 544 200 
C 211 -3 166 -314 166 -435 
C 166 -898 749 -1280 1498 -1280 
C 2253 -1280 2835 -898 2835 -428 
C 2835 448 1856 448 1587 448 
L 1069 448 
C 973 448 717 448 717 791 
C 717 921 774 1004 781 1010 
C 877 940 1075 832 1338 832 
C 1869 832 2310 1278 2310 1827 
C 2310 2132 2170 2355 2112 2432 
L 2131 2432 
C 2150 2432 2419 2432 2515 2432 
C 2720 2432 2739 2429 2918 2419 
L 2848 2808 
z
M 1338 1182 
C 1120 1182 813 1315 813 1823 
C 813 2375 1165 2464 1331 2464 
C 1549 2464 1856 2331 1856 1823 
C 1856 1271 1504 1182 1338 1182 
z
M 1581 -10 
C 1734 -10 2381 -10 2381 -442 
C 2381 -714 1984 -929 1504 -929 
C 1018 -929 621 -720 621 -435 
C 621 -403 621 -10 1062 -10 
L 1581 -10 
z
" transform="scale(0.015625)"/>
       <path id="CMSS17-70" d="M 966 333 
C 1178 129 1466 -5 1773 -5 
C 2368 -5 2880 603 2880 1412 
C 2880 2159 2496 2816 1946 2816 
C 1626 2816 1242 2702 954 2472 
L 954 2765 
L 480 2765 
L 480 -1216 
L 966 -1216 
L 966 333 
z
M 966 2100 
C 1018 2176 1235 2415 1587 2415 
C 2035 2415 2394 1960 2394 1412 
C 2394 787 1958 384 1530 384 
C 1402 384 1267 415 1139 523 
C 966 674 966 768 966 857 
L 966 2100 
z
" transform="scale(0.015625)"/>
       <path id="CMSS17-74" d="M 1069 2368 
L 1901 2368 
L 1901 2737 
L 1069 2737 
L 1069 3520 
L 614 3520 
L 614 2737 
L 109 2737 
L 109 2368 
L 602 2368 
L 602 749 
C 602 384 685 -64 1107 -64 
C 1427 -64 1722 25 2003 172 
L 1901 548 
C 1747 414 1562 337 1363 337 
C 1082 337 1069 696 1069 856 
L 1069 2368 
z
" transform="scale(0.015625)"/>
       <path id="CMSS17-6d" d="M 4288 1877 
C 4288 2308 4179 2816 3462 2816 
C 2982 2816 2694 2516 2566 2331 
C 2451 2670 2182 2816 1798 2816 
C 1363 2816 1088 2568 941 2389 
L 941 2758 
L 474 2758 
L 474 0 
L 960 0 
L 960 1559 
C 960 1939 1101 2428 1555 2428 
C 2138 2428 2138 2016 2138 1829 
L 2138 0 
L 2624 0 
L 2624 1559 
C 2624 1939 2765 2428 3219 2428 
C 3802 2428 3802 2016 3802 1829 
L 3802 0 
L 4288 0 
L 4288 1877 
z
" transform="scale(0.015625)"/>
       <path id="CMSS17-28" d="M 1613 4768 
C 1267 4417 474 3601 474 1588 
C 474 -433 1267 -1243 1613 -1600 
L 2003 -1600 
C 1216 -784 960 357 960 1581 
C 960 2798 1203 3946 2003 4768 
L 1613 4768 
z
" transform="scale(0.015625)"/>
       <path id="CMSS17-29" d="M 723 -1600 
C 1069 -1249 1862 -433 1862 1581 
C 1862 3601 1069 4411 723 4768 
L 333 4768 
C 1120 3952 1376 2811 1376 1588 
C 1376 370 1133 -778 333 -1600 
L 723 -1600 
z
" transform="scale(0.015625)"/>
      </defs>
      <use xlink:href="#CMSS17-4d" transform="scale(0.996264)"/>
      <use xlink:href="#CMSS17-65" transform="translate(81.67603 0) scale(0.996264)"/>
      <use xlink:href="#CMSS17-73" transform="translate(123.314852 0) scale(0.996264)"/>
      <use xlink:href="#CMSS17-73" transform="translate(159.228394 0) scale(0.996264)"/>
      <use xlink:href="#CMSS17-61" transform="translate(195.141936 0) scale(0.996264)"/>
      <use xlink:href="#CMSS17-67" transform="translate(240.063857 0) scale(0.996264)"/>
      <use xlink:href="#CMSS17-65" transform="translate(286.90748 0) scale(0.996264)"/>
      <use xlink:href="#CMSS17-70" transform="translate(359.775415 0) scale(0.996264)"/>
      <use xlink:href="#CMSS17-72" transform="translate(405.377904 0) scale(0.996264)"/>
      <use xlink:href="#CMSS17-6f" transform="translate(437.287677 0) scale(0.996264)"/>
      <use xlink:href="#CMSS17-70" transform="translate(484.1313 0) scale(0.996264)"/>
      <use xlink:href="#CMSS17-61" transform="translate(532.336243 0) scale(0.996264)"/>
      <use xlink:href="#CMSS17-67" transform="translate(577.258164 0) scale(0.996264)"/>
      <use xlink:href="#CMSS17-61" transform="translate(624.101787 0) scale(0.996264)"/>
      <use xlink:href="#CMSS17-74" transform="translate(669.023708 0) scale(0.996264)"/>
      <use xlink:href="#CMSS17-69" transform="translate(702.855275 0) scale(0.996264)"/>
      <use xlink:href="#CMSS17-6f" transform="translate(725.035998 0) scale(0.996264)"/>
      <use xlink:href="#CMSS17-6e" transform="translate(771.879621 0) scale(0.996264)"/>
      <use xlink:href="#CMSS17-74" transform="translate(851.313677 0) scale(0.996264)"/>
      <use xlink:href="#CMSS17-69" transform="translate(885.145244 0) scale(0.996264)"/>
      <use xlink:href="#CMSS17-6d" transform="translate(907.325967 0) scale(0.996264)"/>
      <use xlink:href="#CMSS17-65" transform="translate(981.555221 0) scale(0.996264)"/>
      <use xlink:href="#CMSS17-28" transform="translate(1054.423156 0) scale(0.996264)"/>
      <use xlink:href="#CMSS17-6d" transform="translate(1090.85707 0) scale(0.996264)"/>
      <use xlink:href="#CMSS17-73" transform="translate(1165.086325 0) scale(0.996264)"/>
      <use xlink:href="#CMSS17-29" transform="translate(1200.999867 0) scale(0.996264)"/>
     </g>
    </g>
   </g>
   <g id="patch_3">
    <path d="M 51.345 166.344179 
L 76.455 166.344179 
L 76.455 160.854964 
L 70.1775 160.702388 
L 76.455 160.549812 
L 76.455 157.129254 
L 51.345 157.129254 
L 51.345 160.549812 
L 57.6225 160.702388 
L 51.345 160.854964 
L 51.345 166.344179 
z
" clip-path="url(#pb359db057c)" style="fill: #ff0000; stroke: #000000; stroke-linejoin: miter"/>
   </g>
   <g id="line2d_124">
    <path d="M 63.9 166.344179 
L 63.9 184.68 
" clip-path="url(#pb359db057c)" style="fill: none; stroke: #000000; stroke-linecap: square"/>
   </g>
   <g id="line2d_125">
    <path d="M 63.9 157.129254 
L 63.9 146.127761 
" clip-path="url(#pb359db057c)" style="fill: none; stroke: #000000; stroke-linecap: square"/>
   </g>
   <g id="line2d_126">
    <path d="M 57.6225 184.68 
L 70.1775 184.68 
" clip-path="url(#pb359db057c)" style="fill: none; stroke: #000000; stroke-linecap: square"/>
   </g>
   <g id="line2d_127">
    <path d="M 57.6225 146.127761 
L 70.1775 146.127761 
" clip-path="url(#pb359db057c)" style="fill: none; stroke: #000000; stroke-linecap: square"/>
   </g>
   <g id="line2d_128"/>
   <g id="patch_4">
    <path d="M 107.145 162.018806 
L 132.255 162.018806 
L 132.255 152.102729 
L 125.9775 151.769552 
L 132.255 151.436375 
L 132.255 141.896418 
L 107.145 141.896418 
L 107.145 151.436375 
L 113.4225 151.769552 
L 107.145 152.102729 
L 107.145 162.018806 
z
" clip-path="url(#pb359db057c)" style="fill: #0000ff; stroke: #000000; stroke-linejoin: miter"/>
   </g>
   <g id="line2d_129">
    <path d="M 119.7 162.018806 
L 119.7 184.68 
" clip-path="url(#pb359db057c)" style="fill: none; stroke: #000000; stroke-linecap: square"/>
   </g>
   <g id="line2d_130">
    <path d="M 119.7 141.896418 
L 119.7 108.89194 
" clip-path="url(#pb359db057c)" style="fill: none; stroke: #000000; stroke-linecap: square"/>
   </g>
   <g id="line2d_131">
    <path d="M 113.4225 184.68 
L 125.9775 184.68 
" clip-path="url(#pb359db057c)" style="fill: none; stroke: #000000; stroke-linecap: square"/>
   </g>
   <g id="line2d_132">
    <path d="M 113.4225 108.89194 
L 125.9775 108.89194 
" clip-path="url(#pb359db057c)" style="fill: none; stroke: #000000; stroke-linecap: square"/>
   </g>
   <g id="line2d_133"/>
   <g id="patch_5">
    <path d="M 162.945 139.169552 
L 188.055 139.169552 
L 188.055 131.167383 
L 181.7775 130.894925 
L 188.055 130.622467 
L 188.055 122.714328 
L 162.945 122.714328 
L 162.945 130.622467 
L 169.2225 130.894925 
L 162.945 131.167383 
L 162.945 139.169552 
z
" clip-path="url(#pb359db057c)" style="fill: #ffd700; stroke: #000000; stroke-linejoin: miter"/>
   </g>
   <g id="line2d_134">
    <path d="M 175.5 139.169552 
L 175.5 182.893433 
" clip-path="url(#pb359db057c)" style="fill: none; stroke: #000000; stroke-linecap: square"/>
   </g>
   <g id="line2d_135">
    <path d="M 175.5 122.714328 
L 175.5 76.545672 
" clip-path="url(#pb359db057c)" style="fill: none; stroke: #000000; stroke-linecap: square"/>
   </g>
   <g id="line2d_136">
    <path d="M 169.2225 182.893433 
L 181.7775 182.893433 
" clip-path="url(#pb359db057c)" style="fill: none; stroke: #000000; stroke-linecap: square"/>
   </g>
   <g id="line2d_137">
    <path d="M 169.2225 76.545672 
L 181.7775 76.545672 
" clip-path="url(#pb359db057c)" style="fill: none; stroke: #000000; stroke-linecap: square"/>
   </g>
   <g id="line2d_138"/>
   <g id="patch_6">
    <path d="M 218.745 125.065075 
L 243.855 125.065075 
L 243.855 109.749143 
L 237.5775 109.26806 
L 243.855 108.786977 
L 243.855 96.009851 
L 218.745 96.009851 
L 218.745 108.786977 
L 225.0225 109.26806 
L 218.745 109.749143 
L 218.745 125.065075 
z
" clip-path="url(#pb359db057c)" style="fill: #9acd32; stroke: #000000; stroke-linejoin: miter"/>
   </g>
   <g id="line2d_139">
    <path d="M 231.3 125.065075 
L 231.3 182.893433 
" clip-path="url(#pb359db057c)" style="fill: none; stroke: #000000; stroke-linecap: square"/>
   </g>
   <g id="line2d_140">
    <path d="M 231.3 96.009851 
L 231.3 33.48 
" clip-path="url(#pb359db057c)" style="fill: none; stroke: #000000; stroke-linecap: square"/>
   </g>
   <g id="line2d_141">
    <path d="M 225.0225 182.893433 
L 237.5775 182.893433 
" clip-path="url(#pb359db057c)" style="fill: none; stroke: #000000; stroke-linecap: square"/>
   </g>
   <g id="line2d_142">
    <path d="M 225.0225 33.48 
L 237.5775 33.48 
" clip-path="url(#pb359db057c)" style="fill: none; stroke: #000000; stroke-linecap: square"/>
   </g>
   <g id="line2d_143"/>
   <g id="line2d_144">
    <path d="M 57.6225 160.702388 
L 70.1775 160.702388 
" clip-path="url(#pb359db057c)" style="fill: none; stroke: #ff7f0e; stroke-linecap: square"/>
   </g>
   <g id="line2d_145">
    <path d="M 113.4225 151.769552 
L 125.9775 151.769552 
" clip-path="url(#pb359db057c)" style="fill: none; stroke: #ff7f0e; stroke-linecap: square"/>
   </g>
   <g id="line2d_146">
    <path d="M 169.2225 130.894925 
L 181.7775 130.894925 
" clip-path="url(#pb359db057c)" style="fill: none; stroke: #ff7f0e; stroke-linecap: square"/>
   </g>
   <g id="line2d_147">
    <path d="M 225.0225 109.26806 
L 237.5775 109.26806 
" clip-path="url(#pb359db057c)" style="fill: none; stroke: #ff7f0e; stroke-linecap: square"/>
   </g>
   <g id="patch_7">
    <path d="M 36 192.24 
L 36 25.92 
" style="fill: none; stroke: #000000; stroke-width: 0.5; stroke-linejoin: miter; stroke-linecap: square"/>
   </g>
   <g id="patch_8">
    <path d="M 259.2 192.24 
L 259.2 25.92 
" style="fill: none; stroke: #000000; stroke-width: 0.5; stroke-linejoin: miter; stroke-linecap: square"/>
   </g>
   <g id="patch_9">
    <path d="M 36 192.24 
L 259.2 192.24 
" style="fill: none; stroke: #000000; stroke-width: 0.5; stroke-linejoin: miter; stroke-linecap: square"/>
   </g>
   <g id="patch_10">
    <path d="M 36 25.92 
L 259.2 25.92 
" style="fill: none; stroke: #000000; stroke-width: 0.5; stroke-linejoin: miter; stroke-linecap: square"/>
   </g>
   <g id="text_14">
    <!--  $ \mu =$ 508 ms -->
    <g transform="translate(75.7575 153.971513) scale(0.06 -0.06)">
     <defs>
      <path id="DejaVuSans-20" transform="scale(0.015625)"/>
      <path id="DejaVuSans-Oblique-3bc" d="M -84 -1331 
L 856 3500 
L 1434 3500 
L 1009 1322 
Q 997 1256 987 1175 
Q 978 1094 978 1013 
Q 978 722 1161 565 
Q 1344 409 1684 409 
Q 2147 409 2431 671 
Q 2716 934 2816 1459 
L 3213 3500 
L 3788 3500 
L 3266 809 
Q 3253 750 3248 706 
Q 3244 663 3244 628 
Q 3244 531 3283 486 
Q 3322 441 3406 441 
Q 3438 441 3492 456 
Q 3547 472 3647 513 
L 3559 50 
Q 3422 -19 3297 -55 
Q 3172 -91 3053 -91 
Q 2847 -91 2730 40 
Q 2613 172 2613 403 
Q 2438 153 2195 31 
Q 1953 -91 1625 -91 
Q 1334 -91 1117 43 
Q 900 178 831 397 
L 494 -1331 
L -84 -1331 
z
" transform="scale(0.015625)"/>
      <path id="DejaVuSans-3d" d="M 678 2906 
L 4684 2906 
L 4684 2381 
L 678 2381 
L 678 2906 
z
M 678 1631 
L 4684 1631 
L 4684 1100 
L 678 1100 
L 678 1631 
z
" transform="scale(0.015625)"/>
      <path id="DejaVuSans-35" d="M 691 4666 
L 3169 4666 
L 3169 4134 
L 1269 4134 
L 1269 2991 
Q 1406 3038 1543 3061 
Q 1681 3084 1819 3084 
Q 2600 3084 3056 2656 
Q 3513 2228 3513 1497 
Q 3513 744 3044 326 
Q 2575 -91 1722 -91 
Q 1428 -91 1123 -41 
Q 819 9 494 109 
L 494 744 
Q 775 591 1075 516 
Q 1375 441 1709 441 
Q 2250 441 2565 725 
Q 2881 1009 2881 1497 
Q 2881 1984 2565 2268 
Q 2250 2553 1709 2553 
Q 1456 2553 1204 2497 
Q 953 2441 691 2322 
L 691 4666 
z
" transform="scale(0.015625)"/>
      <path id="DejaVuSans-30" d="M 2034 4250 
Q 1547 4250 1301 3770 
Q 1056 3291 1056 2328 
Q 1056 1369 1301 889 
Q 1547 409 2034 409 
Q 2525 409 2770 889 
Q 3016 1369 3016 2328 
Q 3016 3291 2770 3770 
Q 2525 4250 2034 4250 
z
M 2034 4750 
Q 2819 4750 3233 4129 
Q 3647 3509 3647 2328 
Q 3647 1150 3233 529 
Q 2819 -91 2034 -91 
Q 1250 -91 836 529 
Q 422 1150 422 2328 
Q 422 3509 836 4129 
Q 1250 4750 2034 4750 
z
" transform="scale(0.015625)"/>
      <path id="DejaVuSans-38" d="M 2034 2216 
Q 1584 2216 1326 1975 
Q 1069 1734 1069 1313 
Q 1069 891 1326 650 
Q 1584 409 2034 409 
Q 2484 409 2743 651 
Q 3003 894 3003 1313 
Q 3003 1734 2745 1975 
Q 2488 2216 2034 2216 
z
M 1403 2484 
Q 997 2584 770 2862 
Q 544 3141 544 3541 
Q 544 4100 942 4425 
Q 1341 4750 2034 4750 
Q 2731 4750 3128 4425 
Q 3525 4100 3525 3541 
Q 3525 3141 3298 2862 
Q 3072 2584 2669 2484 
Q 3125 2378 3379 2068 
Q 3634 1759 3634 1313 
Q 3634 634 3220 271 
Q 2806 -91 2034 -91 
Q 1263 -91 848 271 
Q 434 634 434 1313 
Q 434 1759 690 2068 
Q 947 2378 1403 2484 
z
M 1172 3481 
Q 1172 3119 1398 2916 
Q 1625 2713 2034 2713 
Q 2441 2713 2670 2916 
Q 2900 3119 2900 3481 
Q 2900 3844 2670 4047 
Q 2441 4250 2034 4250 
Q 1625 4250 1398 4047 
Q 1172 3844 1172 3481 
z
" transform="scale(0.015625)"/>
      <path id="DejaVuSans-6d" d="M 3328 2828 
Q 3544 3216 3844 3400 
Q 4144 3584 4550 3584 
Q 5097 3584 5394 3201 
Q 5691 2819 5691 2113 
L 5691 0 
L 5113 0 
L 5113 2094 
Q 5113 2597 4934 2840 
Q 4756 3084 4391 3084 
Q 3944 3084 3684 2787 
Q 3425 2491 3425 1978 
L 3425 0 
L 2847 0 
L 2847 2094 
Q 2847 2600 2669 2842 
Q 2491 3084 2119 3084 
Q 1678 3084 1418 2786 
Q 1159 2488 1159 1978 
L 1159 0 
L 581 0 
L 581 3500 
L 1159 3500 
L 1159 2956 
Q 1356 3278 1631 3431 
Q 1906 3584 2284 3584 
Q 2666 3584 2933 3390 
Q 3200 3197 3328 2828 
z
" transform="scale(0.015625)"/>
      <path id="DejaVuSans-73" d="M 2834 3397 
L 2834 2853 
Q 2591 2978 2328 3040 
Q 2066 3103 1784 3103 
Q 1356 3103 1142 2972 
Q 928 2841 928 2578 
Q 928 2378 1081 2264 
Q 1234 2150 1697 2047 
L 1894 2003 
Q 2506 1872 2764 1633 
Q 3022 1394 3022 966 
Q 3022 478 2636 193 
Q 2250 -91 1575 -91 
Q 1294 -91 989 -36 
Q 684 19 347 128 
L 347 722 
Q 666 556 975 473 
Q 1284 391 1588 391 
Q 1994 391 2212 530 
Q 2431 669 2431 922 
Q 2431 1156 2273 1281 
Q 2116 1406 1581 1522 
L 1381 1569 
Q 847 1681 609 1914 
Q 372 2147 372 2553 
Q 372 3047 722 3315 
Q 1072 3584 1716 3584 
Q 2034 3584 2315 3537 
Q 2597 3491 2834 3397 
z
" transform="scale(0.015625)"/>
     </defs>
     <use xlink:href="#DejaVuSans-20" transform="translate(0 0.78125)"/>
     <use xlink:href="#DejaVuSans-Oblique-3bc" transform="translate(31.787109 0.78125)"/>
     <use xlink:href="#DejaVuSans-3d" transform="translate(114.892578 0.78125)"/>
     <use xlink:href="#DejaVuSans-20" transform="translate(218.164062 0.78125)"/>
     <use xlink:href="#DejaVuSans-35" transform="translate(249.951172 0.78125)"/>
     <use xlink:href="#DejaVuSans-30" transform="translate(313.574219 0.78125)"/>
     <use xlink:href="#DejaVuSans-38" transform="translate(377.197266 0.78125)"/>
     <use xlink:href="#DejaVuSans-20" transform="translate(440.820312 0.78125)"/>
     <use xlink:href="#DejaVuSans-6d" transform="translate(472.607422 0.78125)"/>
     <use xlink:href="#DejaVuSans-73" transform="translate(570.019531 0.78125)"/>
    </g>
    <!--  $ p_{95} = $ 627 ms -->
    <g transform="translate(75.7575 160.702388) scale(0.06 -0.06)">
     <defs>
      <path id="DejaVuSans-Oblique-70" d="M 3175 2156 
Q 3175 2616 2975 2859 
Q 2775 3103 2400 3103 
Q 2144 3103 1911 2972 
Q 1678 2841 1497 2591 
Q 1319 2344 1212 1994 
Q 1106 1644 1106 1300 
Q 1106 863 1306 627 
Q 1506 391 1875 391 
Q 2147 391 2380 519 
Q 2613 647 2778 891 
Q 2956 1147 3065 1494 
Q 3175 1841 3175 2156 
z
M 1394 2969 
Q 1625 3272 1939 3428 
Q 2253 3584 2638 3584 
Q 3175 3584 3472 3232 
Q 3769 2881 3769 2247 
Q 3769 1728 3584 1258 
Q 3400 788 3053 416 
Q 2822 169 2531 39 
Q 2241 -91 1919 -91 
Q 1547 -91 1294 64 
Q 1041 219 916 525 
L 556 -1331 
L -19 -1331 
L 922 3500 
L 1497 3500 
L 1394 2969 
z
" transform="scale(0.015625)"/>
      <path id="DejaVuSans-39" d="M 703 97 
L 703 672 
Q 941 559 1184 500 
Q 1428 441 1663 441 
Q 2288 441 2617 861 
Q 2947 1281 2994 2138 
Q 2813 1869 2534 1725 
Q 2256 1581 1919 1581 
Q 1219 1581 811 2004 
Q 403 2428 403 3163 
Q 403 3881 828 4315 
Q 1253 4750 1959 4750 
Q 2769 4750 3195 4129 
Q 3622 3509 3622 2328 
Q 3622 1225 3098 567 
Q 2575 -91 1691 -91 
Q 1453 -91 1209 -44 
Q 966 3 703 97 
z
M 1959 2075 
Q 2384 2075 2632 2365 
Q 2881 2656 2881 3163 
Q 2881 3666 2632 3958 
Q 2384 4250 1959 4250 
Q 1534 4250 1286 3958 
Q 1038 3666 1038 3163 
Q 1038 2656 1286 2365 
Q 1534 2075 1959 2075 
z
" transform="scale(0.015625)"/>
      <path id="DejaVuSans-36" d="M 2113 2584 
Q 1688 2584 1439 2293 
Q 1191 2003 1191 1497 
Q 1191 994 1439 701 
Q 1688 409 2113 409 
Q 2538 409 2786 701 
Q 3034 994 3034 1497 
Q 3034 2003 2786 2293 
Q 2538 2584 2113 2584 
z
M 3366 4563 
L 3366 3988 
Q 3128 4100 2886 4159 
Q 2644 4219 2406 4219 
Q 1781 4219 1451 3797 
Q 1122 3375 1075 2522 
Q 1259 2794 1537 2939 
Q 1816 3084 2150 3084 
Q 2853 3084 3261 2657 
Q 3669 2231 3669 1497 
Q 3669 778 3244 343 
Q 2819 -91 2113 -91 
Q 1303 -91 875 529 
Q 447 1150 447 2328 
Q 447 3434 972 4092 
Q 1497 4750 2381 4750 
Q 2619 4750 2861 4703 
Q 3103 4656 3366 4563 
z
" transform="scale(0.015625)"/>
      <path id="DejaVuSans-32" d="M 1228 531 
L 3431 531 
L 3431 0 
L 469 0 
L 469 531 
Q 828 903 1448 1529 
Q 2069 2156 2228 2338 
Q 2531 2678 2651 2914 
Q 2772 3150 2772 3378 
Q 2772 3750 2511 3984 
Q 2250 4219 1831 4219 
Q 1534 4219 1204 4116 
Q 875 4013 500 3803 
L 500 4441 
Q 881 4594 1212 4672 
Q 1544 4750 1819 4750 
Q 2544 4750 2975 4387 
Q 3406 4025 3406 3419 
Q 3406 3131 3298 2873 
Q 3191 2616 2906 2266 
Q 2828 2175 2409 1742 
Q 1991 1309 1228 531 
z
" transform="scale(0.015625)"/>
      <path id="DejaVuSans-37" d="M 525 4666 
L 3525 4666 
L 3525 4397 
L 1831 0 
L 1172 0 
L 2766 4134 
L 525 4134 
L 525 4666 
z
" transform="scale(0.015625)"/>
     </defs>
     <use xlink:href="#DejaVuSans-20" transform="translate(0 0.78125)"/>
     <use xlink:href="#DejaVuSans-Oblique-70" transform="translate(31.787109 0.78125)"/>
     <use xlink:href="#DejaVuSans-39" transform="translate(95.263672 -15.625) scale(0.7)"/>
     <use xlink:href="#DejaVuSans-35" transform="translate(139.799805 -15.625) scale(0.7)"/>
     <use xlink:href="#DejaVuSans-3d" transform="translate(206.552734 0.78125)"/>
     <use xlink:href="#DejaVuSans-20" transform="translate(309.824219 0.78125)"/>
     <use xlink:href="#DejaVuSans-36" transform="translate(341.611328 0.78125)"/>
     <use xlink:href="#DejaVuSans-32" transform="translate(405.234375 0.78125)"/>
     <use xlink:href="#DejaVuSans-37" transform="translate(468.857422 0.78125)"/>
     <use xlink:href="#DejaVuSans-20" transform="translate(532.480469 0.78125)"/>
     <use xlink:href="#DejaVuSans-6d" transform="translate(564.267578 0.78125)"/>
     <use xlink:href="#DejaVuSans-73" transform="translate(661.679688 0.78125)"/>
    </g>
   </g>
   <g id="text_15">
    <!--  $ \mu =$ 610 ms -->
    <g transform="translate(131.5575 145.038677) scale(0.06 -0.06)">
     <defs>
      <path id="DejaVuSans-31" d="M 794 531 
L 1825 531 
L 1825 4091 
L 703 3866 
L 703 4441 
L 1819 4666 
L 2450 4666 
L 2450 531 
L 3481 531 
L 3481 0 
L 794 0 
L 794 531 
z
" transform="scale(0.015625)"/>
     </defs>
     <use xlink:href="#DejaVuSans-20" transform="translate(0 0.78125)"/>
     <use xlink:href="#DejaVuSans-Oblique-3bc" transform="translate(31.787109 0.78125)"/>
     <use xlink:href="#DejaVuSans-3d" transform="translate(114.892578 0.78125)"/>
     <use xlink:href="#DejaVuSans-20" transform="translate(218.164062 0.78125)"/>
     <use xlink:href="#DejaVuSans-36" transform="translate(249.951172 0.78125)"/>
     <use xlink:href="#DejaVuSans-31" transform="translate(313.574219 0.78125)"/>
     <use xlink:href="#DejaVuSans-30" transform="translate(377.197266 0.78125)"/>
     <use xlink:href="#DejaVuSans-20" transform="translate(440.820312 0.78125)"/>
     <use xlink:href="#DejaVuSans-6d" transform="translate(472.607422 0.78125)"/>
     <use xlink:href="#DejaVuSans-73" transform="translate(570.019531 0.78125)"/>
    </g>
    <!--  $ p_{95} = $ 849 ms -->
    <g transform="translate(131.5575 151.769552) scale(0.06 -0.06)">
     <defs>
      <path id="DejaVuSans-34" d="M 2419 4116 
L 825 1625 
L 2419 1625 
L 2419 4116 
z
M 2253 4666 
L 3047 4666 
L 3047 1625 
L 3713 1625 
L 3713 1100 
L 3047 1100 
L 3047 0 
L 2419 0 
L 2419 1100 
L 313 1100 
L 313 1709 
L 2253 4666 
z
" transform="scale(0.015625)"/>
     </defs>
     <use xlink:href="#DejaVuSans-20" transform="translate(0 0.78125)"/>
     <use xlink:href="#DejaVuSans-Oblique-70" transform="translate(31.787109 0.78125)"/>
     <use xlink:href="#DejaVuSans-39" transform="translate(95.263672 -15.625) scale(0.7)"/>
     <use xlink:href="#DejaVuSans-35" transform="translate(139.799805 -15.625) scale(0.7)"/>
     <use xlink:href="#DejaVuSans-3d" transform="translate(206.552734 0.78125)"/>
     <use xlink:href="#DejaVuSans-20" transform="translate(309.824219 0.78125)"/>
     <use xlink:href="#DejaVuSans-38" transform="translate(341.611328 0.78125)"/>
     <use xlink:href="#DejaVuSans-34" transform="translate(405.234375 0.78125)"/>
     <use xlink:href="#DejaVuSans-39" transform="translate(468.857422 0.78125)"/>
     <use xlink:href="#DejaVuSans-20" transform="translate(532.480469 0.78125)"/>
     <use xlink:href="#DejaVuSans-6d" transform="translate(564.267578 0.78125)"/>
     <use xlink:href="#DejaVuSans-73" transform="translate(661.679688 0.78125)"/>
    </g>
   </g>
   <g id="text_16">
    <!--  $ \mu =$ 829 ms -->
    <g transform="translate(187.3575 124.16405) scale(0.06 -0.06)">
     <use xlink:href="#DejaVuSans-20" transform="translate(0 0.78125)"/>
     <use xlink:href="#DejaVuSans-Oblique-3bc" transform="translate(31.787109 0.78125)"/>
     <use xlink:href="#DejaVuSans-3d" transform="translate(114.892578 0.78125)"/>
     <use xlink:href="#DejaVuSans-20" transform="translate(218.164062 0.78125)"/>
     <use xlink:href="#DejaVuSans-38" transform="translate(249.951172 0.78125)"/>
     <use xlink:href="#DejaVuSans-32" transform="translate(313.574219 0.78125)"/>
     <use xlink:href="#DejaVuSans-39" transform="translate(375.447266 0.78125)"/>
     <use xlink:href="#DejaVuSans-20" transform="translate(439.070312 0.78125)"/>
     <use xlink:href="#DejaVuSans-6d" transform="translate(470.857422 0.78125)"/>
     <use xlink:href="#DejaVuSans-73" transform="translate(568.269531 0.78125)"/>
    </g>
    <!--  $ p_{95} = $ 1030 ms -->
    <g transform="translate(187.3575 130.894925) scale(0.06 -0.06)">
     <defs>
      <path id="DejaVuSans-33" d="M 2597 2516 
Q 3050 2419 3304 2112 
Q 3559 1806 3559 1356 
Q 3559 666 3084 287 
Q 2609 -91 1734 -91 
Q 1441 -91 1130 -33 
Q 819 25 488 141 
L 488 750 
Q 750 597 1062 519 
Q 1375 441 1716 441 
Q 2309 441 2620 675 
Q 2931 909 2931 1356 
Q 2931 1769 2642 2001 
Q 2353 2234 1838 2234 
L 1294 2234 
L 1294 2753 
L 1863 2753 
Q 2328 2753 2575 2939 
Q 2822 3125 2822 3475 
Q 2822 3834 2567 4026 
Q 2313 4219 1838 4219 
Q 1578 4219 1281 4162 
Q 984 4106 628 3988 
L 628 4550 
Q 988 4650 1302 4700 
Q 1616 4750 1894 4750 
Q 2613 4750 3031 4423 
Q 3450 4097 3450 3541 
Q 3450 3153 3228 2886 
Q 3006 2619 2597 2516 
z
" transform="scale(0.015625)"/>
     </defs>
     <use xlink:href="#DejaVuSans-20" transform="translate(0 0.78125)"/>
     <use xlink:href="#DejaVuSans-Oblique-70" transform="translate(31.787109 0.78125)"/>
     <use xlink:href="#DejaVuSans-39" transform="translate(95.263672 -15.625) scale(0.7)"/>
     <use xlink:href="#DejaVuSans-35" transform="translate(139.799805 -15.625) scale(0.7)"/>
     <use xlink:href="#DejaVuSans-3d" transform="translate(206.552734 0.78125)"/>
     <use xlink:href="#DejaVuSans-20" transform="translate(309.824219 0.78125)"/>
     <use xlink:href="#DejaVuSans-31" transform="translate(341.611328 0.78125)"/>
     <use xlink:href="#DejaVuSans-30" transform="translate(405.234375 0.78125)"/>
     <use xlink:href="#DejaVuSans-33" transform="translate(468.857422 0.78125)"/>
     <use xlink:href="#DejaVuSans-30" transform="translate(532.480469 0.78125)"/>
     <use xlink:href="#DejaVuSans-20" transform="translate(596.103516 0.78125)"/>
     <use xlink:href="#DejaVuSans-6d" transform="translate(627.890625 0.78125)"/>
     <use xlink:href="#DejaVuSans-73" transform="translate(725.302734 0.78125)"/>
    </g>
   </g>
   <g id="text_17">
    <!--  $ \mu =$ 1043 ms -->
    <g transform="translate(243.1575 102.537185) scale(0.06 -0.06)">
     <use xlink:href="#DejaVuSans-20" transform="translate(0 0.78125)"/>
     <use xlink:href="#DejaVuSans-Oblique-3bc" transform="translate(31.787109 0.78125)"/>
     <use xlink:href="#DejaVuSans-3d" transform="translate(114.892578 0.78125)"/>
     <use xlink:href="#DejaVuSans-20" transform="translate(218.164062 0.78125)"/>
     <use xlink:href="#DejaVuSans-31" transform="translate(249.951172 0.78125)"/>
     <use xlink:href="#DejaVuSans-30" transform="translate(313.574219 0.78125)"/>
     <use xlink:href="#DejaVuSans-34" transform="translate(377.197266 0.78125)"/>
     <use xlink:href="#DejaVuSans-33" transform="translate(440.820312 0.78125)"/>
     <use xlink:href="#DejaVuSans-20" transform="translate(504.443359 0.78125)"/>
     <use xlink:href="#DejaVuSans-6d" transform="translate(536.230469 0.78125)"/>
     <use xlink:href="#DejaVuSans-73" transform="translate(633.642578 0.78125)"/>
    </g>
    <!--  $ p_{95} = $ 1387 ms -->
    <g transform="translate(243.1575 109.26806) scale(0.06 -0.06)">
     <use xlink:href="#DejaVuSans-20" transform="translate(0 0.78125)"/>
     <use xlink:href="#DejaVuSans-Oblique-70" transform="translate(31.787109 0.78125)"/>
     <use xlink:href="#DejaVuSans-39" transform="translate(95.263672 -15.625) scale(0.7)"/>
     <use xlink:href="#DejaVuSans-35" transform="translate(139.799805 -15.625) scale(0.7)"/>
     <use xlink:href="#DejaVuSans-3d" transform="translate(206.552734 0.78125)"/>
     <use xlink:href="#DejaVuSans-20" transform="translate(309.824219 0.78125)"/>
     <use xlink:href="#DejaVuSans-31" transform="translate(341.611328 0.78125)"/>
     <use xlink:href="#DejaVuSans-33" transform="translate(405.234375 0.78125)"/>
     <use xlink:href="#DejaVuSans-38" transform="translate(468.857422 0.78125)"/>
     <use xlink:href="#DejaVuSans-37" transform="translate(532.480469 0.78125)"/>
     <use xlink:href="#DejaVuSans-20" transform="translate(596.103516 0.78125)"/>
     <use xlink:href="#DejaVuSans-6d" transform="translate(627.890625 0.78125)"/>
     <use xlink:href="#DejaVuSans-73" transform="translate(725.302734 0.78125)"/>
    </g>
   </g>
   <g id="text_18">
    <!-- Message latencies distribution -->
    <g transform="translate(86.369349 10.090187) scale(0.096 -0.096)">
     <defs>
      <path id="CMSS17-6c" d="M 947 4416 
L 474 4416 
L 474 0 
L 947 0 
L 947 4416 
z
" transform="scale(0.015625)"/>
      <path id="CMSS17-64" d="M 2611 4416 
L 2138 4416 
L 2138 2438 
C 1939 2603 1613 2756 1254 2756 
C 672 2756 211 2131 211 1347 
C 211 562 666 -64 1235 -64 
C 1677 -64 1971 172 2125 306 
L 2125 -13 
L 2611 -13 
L 2611 4416 
z
M 2125 836 
C 2125 747 2125 653 1926 482 
C 1798 375 1645 325 1498 325 
C 1152 325 698 576 698 1340 
C 698 2134 1210 2368 1562 2368 
C 1798 2368 1990 2254 2125 2065 
L 2125 836 
z
" transform="scale(0.015625)"/>
      <path id="CMSS17-62" d="M 954 4416 
L 480 4416 
L 480 -13 
L 966 -13 
L 966 274 
C 1210 38 1504 -64 1766 -64 
C 2381 -64 2880 549 2880 1352 
C 2880 2086 2496 2756 1926 2756 
C 1523 2756 1165 2591 954 2419 
L 954 4416 
z
M 966 2046 
C 1107 2222 1306 2368 1587 2368 
C 1965 2368 2394 2097 2394 1352 
C 2394 558 1882 325 1530 325 
C 1402 325 1267 356 1139 464 
C 966 615 966 709 966 797 
L 966 2046 
z
" transform="scale(0.015625)"/>
      <path id="CMSS17-75" d="M 2618 2739 
L 2131 2739 
L 2131 972 
C 2131 498 1786 306 1421 306 
C 998 306 960 447 960 709 
L 960 2739 
L 474 2739 
L 474 678 
C 474 179 646 -64 1088 -64 
C 1306 -64 1798 -13 2144 306 
L 2144 0 
L 2618 0 
L 2618 2739 
z
" transform="scale(0.015625)"/>
     </defs>
     <use xlink:href="#CMSS17-4d" transform="scale(0.996264)"/>
     <use xlink:href="#CMSS17-65" transform="translate(81.67603 0) scale(0.996264)"/>
     <use xlink:href="#CMSS17-73" transform="translate(123.314852 0) scale(0.996264)"/>
     <use xlink:href="#CMSS17-73" transform="translate(159.228394 0) scale(0.996264)"/>
     <use xlink:href="#CMSS17-61" transform="translate(195.141936 0) scale(0.996264)"/>
     <use xlink:href="#CMSS17-67" transform="translate(240.063857 0) scale(0.996264)"/>
     <use xlink:href="#CMSS17-65" transform="translate(286.90748 0) scale(0.996264)"/>
     <use xlink:href="#CMSS17-6c" transform="translate(359.775415 0) scale(0.996264)"/>
     <use xlink:href="#CMSS17-61" transform="translate(381.956138 0) scale(0.996264)"/>
     <use xlink:href="#CMSS17-74" transform="translate(426.878059 0) scale(0.996264)"/>
     <use xlink:href="#CMSS17-65" transform="translate(460.709625 0) scale(0.996264)"/>
     <use xlink:href="#CMSS17-6e" transform="translate(502.348447 0) scale(0.996264)"/>
     <use xlink:href="#CMSS17-63" transform="translate(550.55339 0) scale(0.996264)"/>
     <use xlink:href="#CMSS17-69" transform="translate(592.192213 0) scale(0.996264)"/>
     <use xlink:href="#CMSS17-65" transform="translate(614.372936 0) scale(0.996264)"/>
     <use xlink:href="#CMSS17-73" transform="translate(656.011758 0) scale(0.996264)"/>
     <use xlink:href="#CMSS17-64" transform="translate(723.154412 0) scale(0.996264)"/>
     <use xlink:href="#CMSS17-69" transform="translate(771.359356 0) scale(0.996264)"/>
     <use xlink:href="#CMSS17-73" transform="translate(793.540079 0) scale(0.996264)"/>
     <use xlink:href="#CMSS17-74" transform="translate(829.453621 0) scale(0.996264)"/>
     <use xlink:href="#CMSS17-72" transform="translate(863.285187 0) scale(0.996264)"/>
     <use xlink:href="#CMSS17-69" transform="translate(895.19496 0) scale(0.996264)"/>
     <use xlink:href="#CMSS17-62" transform="translate(917.375683 0) scale(0.996264)"/>
     <use xlink:href="#CMSS17-75" transform="translate(965.580626 0) scale(0.996264)"/>
     <use xlink:href="#CMSS17-74" transform="translate(1013.785569 0) scale(0.996264)"/>
     <use xlink:href="#CMSS17-69" transform="translate(1047.617136 0) scale(0.996264)"/>
     <use xlink:href="#CMSS17-6f" transform="translate(1069.797859 0) scale(0.996264)"/>
     <use xlink:href="#CMSS17-6e" transform="translate(1116.641482 0) scale(0.996264)"/>
    </g>
    <!-- D=6 vs D=3 nodes=1000 samples=8991 -->
    <g transform="translate(62.256175 19.92) scale(0.096 -0.096)">
     <defs>
      <path id="CMSS17-44" d="M 570 4416 
L 570 0 
L 2144 0 
C 3194 0 4000 980 4000 2170 
C 4000 3398 3194 4416 2144 4416 
L 570 4416 
z
M 1094 357 
L 1094 4059 
L 2003 4059 
C 2861 4059 3475 3277 3475 2170 
C 3475 1107 2867 357 2003 357 
L 1094 357 
z
" transform="scale(0.015625)"/>
      <path id="CMSS17-3d" d="M 4147 2017 
C 4243 2017 4339 2017 4339 2125 
C 4339 2240 4230 2240 4122 2240 
L 550 2240 
C 442 2240 333 2240 333 2125 
C 333 2017 429 2017 525 2017 
L 4147 2017 
z
M 4122 896 
C 4230 896 4339 896 4339 1011 
C 4339 1119 4243 1119 4147 1119 
L 525 1119 
C 429 1119 333 1119 333 1011 
C 333 896 442 896 550 896 
L 4122 896 
z
" transform="scale(0.015625)"/>
      <path id="CMSS17-36" d="M 2496 4101 
C 2227 4210 2035 4229 1856 4229 
C 1024 4229 250 3368 250 2006 
C 250 265 986 -128 1510 -128 
C 1798 -128 2086 -39 2362 280 
C 2643 617 2752 898 2752 1389 
C 2752 2179 2362 2880 1779 2880 
C 1357 2880 992 2657 768 2376 
C 832 3258 1254 3840 1862 3840 
C 2029 3840 2246 3816 2496 3710 
L 2496 4101 
z
M 774 1369 
C 774 1420 774 1452 781 1548 
C 781 2045 1069 2491 1536 2491 
C 1837 2491 1990 2332 2106 2135 
C 2240 1886 2246 1650 2246 1388 
C 2246 1140 2246 891 2099 637 
C 1978 439 1818 267 1510 267 
C 902 267 800 1114 774 1369 
z
" transform="scale(0.015625)"/>
      <path id="CMSS17-76" d="M 2675 2752 
L 2176 2752 
L 1747 1556 
C 1613 1165 1421 627 1389 352 
L 1382 352 
C 1370 468 1318 634 1286 749 
C 1248 890 1197 1056 1158 1172 
L 595 2752 
L 83 2752 
L 1094 0 
L 1664 0 
L 2675 2752 
z
" transform="scale(0.015625)"/>
      <path id="CMSS17-30" d="M 2758 2044 
C 2758 2405 2752 3077 2490 3596 
C 2227 4096 1805 4229 1504 4229 
C 1069 4229 698 3975 506 3570 
C 301 3146 243 2709 243 2044 
C 243 1589 262 1031 493 543 
C 755 5 1197 -128 1498 -128 
C 1894 -128 2278 81 2496 518 
C 2720 974 2758 1474 2758 2044 
z
M 1498 261 
C 1011 261 864 811 819 995 
C 742 1310 730 1614 730 2114 
C 730 2506 730 2948 851 3297 
C 998 3701 1254 3840 1498 3840 
C 1971 3840 2125 3372 2176 3208 
C 2272 2873 2272 2481 2272 2114 
C 2272 1526 2272 261 1498 261 
z
" transform="scale(0.015625)"/>
      <path id="CMSS17-38" d="M 1933 2222 
C 2419 2380 2669 2760 2669 3134 
C 2669 3722 2157 4229 1504 4229 
C 826 4229 333 3708 333 3144 
C 333 2780 576 2403 1069 2241 
C 442 1997 250 1512 250 1149 
C 250 446 819 -128 1498 -128 
C 2202 -128 2752 455 2752 1138 
C 2752 1557 2502 2000 1933 2222 
z
M 1504 2432 
C 1075 2432 787 2712 787 3136 
C 787 3566 1075 3840 1504 3840 
C 1901 3840 2214 3591 2214 3136 
C 2214 2687 1907 2432 1504 2432 
z
M 1504 267 
C 1139 267 749 517 749 1156 
C 749 1813 1184 2043 1498 2043 
C 1843 2043 2253 1800 2253 1156 
C 2253 491 1830 267 1504 267 
z
" transform="scale(0.015625)"/>
      <path id="CMSS17-39" d="M 435 174 
C 614 21 845 -128 1235 -128 
C 2010 -128 2752 721 2752 2095 
C 2752 3932 1952 4229 1523 4229 
C 1094 4229 819 4041 582 3741 
C 301 3397 250 3090 250 2733 
C 250 2307 326 2045 506 1745 
C 749 1357 973 1275 1222 1275 
C 1600 1275 1978 1459 2234 1776 
C 2189 902 1798 267 1235 267 
C 1005 267 819 339 634 516 
L 435 174 
z
M 2214 2746 
C 2221 2703 2221 2622 2221 2596 
C 2221 2074 1914 1664 1466 1664 
C 1171 1664 1018 1813 902 2006 
C 762 2249 755 2485 755 2733 
C 755 2976 755 3244 934 3511 
C 1069 3703 1235 3840 1523 3840 
C 2112 3840 2208 3000 2214 2746 
z
" transform="scale(0.015625)"/>
     </defs>
     <use xlink:href="#CMSS17-44" transform="scale(0.996264)"/>
     <use xlink:href="#CMSS17-3d" transform="translate(67.542842 0) scale(0.996264)"/>
     <use xlink:href="#CMSS17-36" transform="translate(140.410776 0) scale(0.996264)"/>
     <use xlink:href="#CMSS17-76" transform="translate(218.483513 0) scale(0.996264)"/>
     <use xlink:href="#CMSS17-73" transform="translate(261.483654 0) scale(0.996264)"/>
     <use xlink:href="#CMSS17-44" transform="translate(328.626309 0) scale(0.996264)"/>
     <use xlink:href="#CMSS17-3d" transform="translate(396.169151 0) scale(0.996264)"/>
     <use xlink:href="#CMSS17-33" transform="translate(469.037086 0) scale(0.996264)"/>
     <use xlink:href="#CMSS17-6e" transform="translate(547.109822 0) scale(0.996264)"/>
     <use xlink:href="#CMSS17-6f" transform="translate(595.314765 0) scale(0.996264)"/>
     <use xlink:href="#CMSS17-64" transform="translate(644.760827 0) scale(0.996264)"/>
     <use xlink:href="#CMSS17-65" transform="translate(692.96577 0) scale(0.996264)"/>
     <use xlink:href="#CMSS17-73" transform="translate(734.604593 0) scale(0.996264)"/>
     <use xlink:href="#CMSS17-3d" transform="translate(770.518135 0) scale(0.996264)"/>
     <use xlink:href="#CMSS17-31" transform="translate(843.386069 0) scale(0.996264)"/>
     <use xlink:href="#CMSS17-30" transform="translate(890.229693 0) scale(0.996264)"/>
     <use xlink:href="#CMSS17-30" transform="translate(937.073316 0) scale(0.996264)"/>
     <use xlink:href="#CMSS17-30" transform="translate(983.91694 0) scale(0.996264)"/>
     <use xlink:href="#CMSS17-73" transform="translate(1061.989676 0) scale(0.996264)"/>
     <use xlink:href="#CMSS17-61" transform="translate(1097.903218 0) scale(0.996264)"/>
     <use xlink:href="#CMSS17-6d" transform="translate(1142.825139 0) scale(0.996264)"/>
     <use xlink:href="#CMSS17-70" transform="translate(1217.054393 0) scale(0.996264)"/>
     <use xlink:href="#CMSS17-6c" transform="translate(1265.259336 0) scale(0.996264)"/>
     <use xlink:href="#CMSS17-65" transform="translate(1287.440059 0) scale(0.996264)"/>
     <use xlink:href="#CMSS17-73" transform="translate(1329.078881 0) scale(0.996264)"/>
     <use xlink:href="#CMSS17-3d" transform="translate(1364.992423 0) scale(0.996264)"/>
     <use xlink:href="#CMSS17-38" transform="translate(1437.860358 0) scale(0.996264)"/>
     <use xlink:href="#CMSS17-39" transform="translate(1484.703982 0) scale(0.996264)"/>
     <use xlink:href="#CMSS17-39" transform="translate(1531.547605 0) scale(0.996264)"/>
     <use xlink:href="#CMSS17-31" transform="translate(1578.391229 0) scale(0.996264)"/>
    </g>
   </g>
   <g id="legend_1">
    <g id="patch_11">
     <path d="M 40.5 33.92 
L 50.5 33.92 
L 50.5 30.42 
L 40.5 30.42 
z
" style="fill: #ff0000; stroke: #000000; stroke-linejoin: miter"/>
    </g>
    <g id="text_19">
     <!-- Message size: 10 kB D=6 -->
     <g transform="translate(54.5 33.92) scale(0.05 -0.05)">
      <defs>
       <path id="CMSS17-7a" d="M 2400 2502 
L 2400 2750 
L 250 2750 
L 250 2368 
L 1069 2368 
C 1146 2368 1222 2368 1299 2368 
L 1747 2368 
L 166 261 
L 166 0 
L 2419 0 
L 2419 395 
L 1549 395 
C 1472 395 1395 395 1318 395 
L 826 395 
L 2400 2502 
z
" transform="scale(0.015625)"/>
       <path id="CMSS17-3a" d="M 1088 2749 
L 576 2749 
L 576 2240 
L 1088 2240 
L 1088 2749 
z
M 576 510 
L 576 0 
L 1088 0 
L 1088 510 
L 576 510 
z
" transform="scale(0.015625)"/>
       <path id="CMSS17-6b" d="M 1696 1688 
L 2688 2739 
L 2074 2739 
L 954 1554 
L 954 4416 
L 480 4416 
L 480 0 
L 947 0 
L 947 892 
L 1376 1344 
L 2278 0 
L 2822 0 
L 1696 1688 
z
" transform="scale(0.015625)"/>
       <path id="CMSS17-42" d="M 570 4416 
L 570 0 
L 2163 0 
C 3034 0 3667 574 3667 1200 
C 3667 1685 3251 2176 2502 2317 
C 3334 2558 3501 3040 3501 3313 
C 3501 3883 2874 4416 1997 4416 
L 570 4416 
z
M 1088 2496 
L 1088 4059 
L 1824 4059 
C 2483 4059 3002 3724 3002 3306 
C 3002 2926 2592 2496 1766 2496 
L 1088 2496 
z
M 1088 357 
L 1088 2107 
L 1939 2107 
C 2630 2107 3162 1679 3162 1206 
C 3162 772 2694 357 1984 357 
L 1088 357 
z
" transform="scale(0.015625)"/>
      </defs>
      <use xlink:href="#CMSS17-4d" transform="scale(0.996264)"/>
      <use xlink:href="#CMSS17-65" transform="translate(81.67603 0) scale(0.996264)"/>
      <use xlink:href="#CMSS17-73" transform="translate(123.314852 0) scale(0.996264)"/>
      <use xlink:href="#CMSS17-73" transform="translate(159.228394 0) scale(0.996264)"/>
      <use xlink:href="#CMSS17-61" transform="translate(195.141936 0) scale(0.996264)"/>
      <use xlink:href="#CMSS17-67" transform="translate(240.063857 0) scale(0.996264)"/>
      <use xlink:href="#CMSS17-65" transform="translate(286.90748 0) scale(0.996264)"/>
      <use xlink:href="#CMSS17-73" transform="translate(359.775415 0) scale(0.996264)"/>
      <use xlink:href="#CMSS17-69" transform="translate(395.688957 0) scale(0.996264)"/>
      <use xlink:href="#CMSS17-7a" transform="translate(417.86968 0) scale(0.996264)"/>
      <use xlink:href="#CMSS17-65" transform="translate(458.547552 0) scale(0.996264)"/>
      <use xlink:href="#CMSS17-3a" transform="translate(500.186374 0) scale(0.996264)"/>
      <use xlink:href="#CMSS17-31" transform="translate(567.849386 0) scale(0.996264)"/>
      <use xlink:href="#CMSS17-30" transform="translate(614.693009 0) scale(0.996264)"/>
      <use xlink:href="#CMSS17-6b" transform="translate(692.765745 0) scale(0.996264)"/>
      <use xlink:href="#CMSS17-42" transform="translate(738.368235 0) scale(0.996264)"/>
      <use xlink:href="#CMSS17-44" transform="translate(831.935388 0) scale(0.996264)"/>
      <use xlink:href="#CMSS17-3d" transform="translate(899.478229 0) scale(0.996264)"/>
      <use xlink:href="#CMSS17-36" transform="translate(972.346164 0) scale(0.996264)"/>
     </g>
    </g>
    <g id="patch_12">
     <path d="M 40.5 40.888582 
L 50.5 40.888582 
L 50.5 37.388582 
L 40.5 37.388582 
z
" style="fill: #0000ff; stroke: #000000; stroke-linejoin: miter"/>
    </g>
    <g id="text_20">
     <!-- Message size: 10 kB D=3 -->
     <g transform="translate(54.5 40.888582) scale(0.05 -0.05)">
      <use xlink:href="#CMSS17-4d" transform="scale(0.996264)"/>
      <use xlink:href="#CMSS17-65" transform="translate(81.67603 0) scale(0.996264)"/>
      <use xlink:href="#CMSS17-73" transform="translate(123.314852 0) scale(0.996264)"/>
      <use xlink:href="#CMSS17-73" transform="translate(159.228394 0) scale(0.996264)"/>
      <use xlink:href="#CMSS17-61" transform="translate(195.141936 0) scale(0.996264)"/>
      <use xlink:href="#CMSS17-67" transform="translate(240.063857 0) scale(0.996264)"/>
      <use xlink:href="#CMSS17-65" transform="translate(286.90748 0) scale(0.996264)"/>
      <use xlink:href="#CMSS17-73" transform="translate(359.775415 0) scale(0.996264)"/>
      <use xlink:href="#CMSS17-69" transform="translate(395.688957 0) scale(0.996264)"/>
      <use xlink:href="#CMSS17-7a" transform="translate(417.86968 0) scale(0.996264)"/>
      <use xlink:href="#CMSS17-65" transform="translate(458.547552 0) scale(0.996264)"/>
      <use xlink:href="#CMSS17-3a" transform="translate(500.186374 0) scale(0.996264)"/>
      <use xlink:href="#CMSS17-31" transform="translate(567.849386 0) scale(0.996264)"/>
      <use xlink:href="#CMSS17-30" transform="translate(614.693009 0) scale(0.996264)"/>
      <use xlink:href="#CMSS17-6b" transform="translate(692.765745 0) scale(0.996264)"/>
      <use xlink:href="#CMSS17-42" transform="translate(738.368235 0) scale(0.996264)"/>
      <use xlink:href="#CMSS17-44" transform="translate(831.935388 0) scale(0.996264)"/>
      <use xlink:href="#CMSS17-3d" transform="translate(899.478229 0) scale(0.996264)"/>
      <use xlink:href="#CMSS17-33" transform="translate(972.346164 0) scale(0.996264)"/>
     </g>
    </g>
    <g id="patch_13">
     <path d="M 40.5 47.857163 
L 50.5 47.857163 
L 50.5 44.357163 
L 40.5 44.357163 
z
" style="fill: #ffd700; stroke: #000000; stroke-linejoin: miter"/>
    </g>
    <g id="text_21">
     <!-- Message size: 100 kB D=6 -->
     <g transform="translate(54.5 47.857163) scale(0.05 -0.05)">
      <use xlink:href="#CMSS17-4d" transform="scale(0.996264)"/>
      <use xlink:href="#CMSS17-65" transform="translate(81.67603 0) scale(0.996264)"/>
      <use xlink:href="#CMSS17-73" transform="translate(123.314852 0) scale(0.996264)"/>
      <use xlink:href="#CMSS17-73" transform="translate(159.228394 0) scale(0.996264)"/>
      <use xlink:href="#CMSS17-61" transform="translate(195.141936 0) scale(0.996264)"/>
      <use xlink:href="#CMSS17-67" transform="translate(240.063857 0) scale(0.996264)"/>
      <use xlink:href="#CMSS17-65" transform="translate(286.90748 0) scale(0.996264)"/>
      <use xlink:href="#CMSS17-73" transform="translate(359.775415 0) scale(0.996264)"/>
      <use xlink:href="#CMSS17-69" transform="translate(395.688957 0) scale(0.996264)"/>
      <use xlink:href="#CMSS17-7a" transform="translate(417.86968 0) scale(0.996264)"/>
      <use xlink:href="#CMSS17-65" transform="translate(458.547552 0) scale(0.996264)"/>
      <use xlink:href="#CMSS17-3a" transform="translate(500.186374 0) scale(0.996264)"/>
      <use xlink:href="#CMSS17-31" transform="translate(567.849386 0) scale(0.996264)"/>
      <use xlink:href="#CMSS17-30" transform="translate(614.693009 0) scale(0.996264)"/>
      <use xlink:href="#CMSS17-30" transform="translate(661.536633 0) scale(0.996264)"/>
      <use xlink:href="#CMSS17-6b" transform="translate(739.609369 0) scale(0.996264)"/>
      <use xlink:href="#CMSS17-42" transform="translate(785.211858 0) scale(0.996264)"/>
      <use xlink:href="#CMSS17-44" transform="translate(878.779011 0) scale(0.996264)"/>
      <use xlink:href="#CMSS17-3d" transform="translate(946.321853 0) scale(0.996264)"/>
      <use xlink:href="#CMSS17-36" transform="translate(1019.189788 0) scale(0.996264)"/>
     </g>
    </g>
    <g id="patch_14">
     <path d="M 40.5 54.825745 
L 50.5 54.825745 
L 50.5 51.325745 
L 40.5 51.325745 
z
" style="fill: #9acd32; stroke: #000000; stroke-linejoin: miter"/>
    </g>
    <g id="text_22">
     <!-- Message size: 100 kB D=3 -->
     <g transform="translate(54.5 54.825745) scale(0.05 -0.05)">
      <use xlink:href="#CMSS17-4d" transform="scale(0.996264)"/>
      <use xlink:href="#CMSS17-65" transform="translate(81.67603 0) scale(0.996264)"/>
      <use xlink:href="#CMSS17-73" transform="translate(123.314852 0) scale(0.996264)"/>
      <use xlink:href="#CMSS17-73" transform="translate(159.228394 0) scale(0.996264)"/>
      <use xlink:href="#CMSS17-61" transform="translate(195.141936 0) scale(0.996264)"/>
      <use xlink:href="#CMSS17-67" transform="translate(240.063857 0) scale(0.996264)"/>
      <use xlink:href="#CMSS17-65" transform="translate(286.90748 0) scale(0.996264)"/>
      <use xlink:href="#CMSS17-73" transform="translate(359.775415 0) scale(0.996264)"/>
      <use xlink:href="#CMSS17-69" transform="translate(395.688957 0) scale(0.996264)"/>
      <use xlink:href="#CMSS17-7a" transform="translate(417.86968 0) scale(0.996264)"/>
      <use xlink:href="#CMSS17-65" transform="translate(458.547552 0) scale(0.996264)"/>
      <use xlink:href="#CMSS17-3a" transform="translate(500.186374 0) scale(0.996264)"/>
      <use xlink:href="#CMSS17-31" transform="translate(567.849386 0) scale(0.996264)"/>
      <use xlink:href="#CMSS17-30" transform="translate(614.693009 0) scale(0.996264)"/>
      <use xlink:href="#CMSS17-30" transform="translate(661.536633 0) scale(0.996264)"/>
      <use xlink:href="#CMSS17-6b" transform="translate(739.609369 0) scale(0.996264)"/>
      <use xlink:href="#CMSS17-42" transform="translate(785.211858 0) scale(0.996264)"/>
      <use xlink:href="#CMSS17-44" transform="translate(878.779011 0) scale(0.996264)"/>
      <use xlink:href="#CMSS17-3d" transform="translate(946.321853 0) scale(0.996264)"/>
      <use xlink:href="#CMSS17-33" transform="translate(1019.189788 0) scale(0.996264)"/>
     </g>
    </g>
   </g>
  </g>
 </g>
 <defs>
  <clipPath id="pb359db057c">
   <rect x="36" y="25.92" width="223.2" height="166.32"/>
  </clipPath>
 </defs>
</svg>
