<svg xmlns="http://www.w3.org/2000/svg" xmlns:xlink="http://www.w3.org/1999/xlink" x="0" y="0" width="662" height="302" style="
        width:662px;
        height:302px;
        background: #FFF;
        fill: none;
">
        
        
        <svg xmlns="http://www.w3.org/2000/svg" class="role-diagram-draw-area"><g class="shapes-region" style="stroke: black; fill: none;"><g class="composite-shape"><path class="real" d=" M335.02,232.36 C327.41,231.58 322.27,223.25 321.79,210.91 C321.31,198.57 325.56,184.39 332.75,174.37 C329.93,168.88 329.43,160.52 331.4,151.82 C333.38,143.12 337.6,135.1 342.79,130.19 C340.15,125.43 339.78,117.83 341.81,110.07 C343.84,102.31 347.97,95.5 352.75,92.06 C350.76,84.46 352.22,74.05 356.48,65.32 C360.75,56.59 367.05,51.11 372.67,51.26 C376.19,44.1 381.03,38.84 385.95,36.82 C390.87,34.79 395.37,36.22 398.31,40.72 C405.93,35.18 413.48,35.97 418.16,42.79 C422.83,49.62 423.92,61.46 421.02,73.9 C426.75,76.07 430.19,83.8 430.01,94.12 C429.82,104.43 426.05,115.72 420.14,123.64 C425.82,129.97 427.46,142.61 424.36,156.1 C421.26,169.59 413.97,181.51 405.64,186.71 C405.73,196.81 403.15,207.94 398.47,217.62 C393.79,227.29 387.41,234.68 380.77,238.12 C378.43,247.55 373.01,255.53 367.19,258.1 C361.38,260.67 356.41,257.27 354.76,249.6 C349.51,256.87 342.97,259.19 338.53,255.33 C334.09,251.48 332.76,242.32 335.23,232.64" style="stroke-width: 1px; stroke: rgb(255, 255, 255); stroke-opacity: 1; fill: rgb(155, 155, 155); fill-opacity: 0.13;"/><path class="real" d=" M354.75,249.59 C357.23,246.16 359.22,241.88 360.45,237.32 M380.77,238.11 C381.26,236.14 381.6,234.16 381.79,232.21 M405.64,186.71 C404.11,187.67 402.57,188.38 401.05,188.83 M420.14,123.64 C419.1,122.48 417.95,121.56 416.7,120.89 M421.02,73.9 C414.91,71.6 407.26,75.98 401.35,85.18 M398.31,40.72 C399.87,43.12 400.92,46.31 401.39,50.02 M372.67,51.26 C373.61,51.28 374.5,51.46 375.35,51.8 M352.75,92.06 C353.24,93.95 353.93,95.61 354.81,97 M342.79,130.19 C343.42,131.33 344.17,132.29 345.02,133.03 M332.75,174.37 C334.27,172.25 335.89,170.37 337.57,168.76 M335.02,232.36 C336.07,232.47 337.15,232.43 338.25,232.24" style="stroke-width: 1px; stroke: rgb(255, 255, 255); stroke-opacity: 1; fill: none; fill-opacity: 0.13;"/></g><g class="composite-shape"><path class="real" d=" M142.45,46.57 C148.06,32.91 155.26,25.56 160.99,27.63 C166.72,29.7 169.98,40.83 169.38,56.29 C173.74,52.46 177.75,53.55 180.18,59.22 C182.62,64.89 183.21,74.48 181.76,85.09 C185.67,81.44 189.25,82.58 191.24,88.12 C193.23,93.66 193.34,102.8 191.54,112.31 C196.24,110.52 199.78,115.66 200.65,125.5 C201.52,135.34 199.55,148.11 195.59,158.3 C196.28,166.41 195.23,176.47 192.72,185.89 C190.2,195.31 186.45,203.17 182.45,207.43 C179.6,222.61 174.02,236.16 167.8,243.03 C161.58,249.9 155.64,249.06 152.21,240.81 C147.29,250.72 141.53,255.13 137.14,252.33 C132.76,249.53 130.43,239.97 131.07,227.33 C124.36,236.15 117.69,236.12 113.94,227.26 C110.18,218.4 110.02,202.3 113.51,185.9 C109.04,183.66 105.96,176.29 104.97,165.47 C103.98,154.65 105.16,141.29 108.25,128.4 C105.75,121.88 106.01,110.11 108.92,98.92 C111.82,87.74 116.75,79.51 121.25,78.34 C121.69,67.07 125.21,54.61 129.98,47.45 C134.74,40.3 139.66,40.07 142.18,46.89" style="stroke-width: 1px; stroke: rgb(255, 255, 255); stroke-opacity: 1; fill: rgb(155, 155, 155); fill-opacity: 0.13;"/><path class="real" d=" M121.25,78.34 C121.04,83.66 121.53,88.29 122.67,91.62 M108.25,128.4 C108.78,129.76 109.41,130.85 110.13,131.65 M113.51,185.9 C114.16,182.88 114.91,179.91 115.77,177.04 M131.07,227.33 C132.29,225.72 133.49,223.85 134.65,221.74 M152.21,240.81 C157.45,230.26 160.83,215.29 160.9,202.34 M182.45,207.43 C180.32,209.7 178.19,210.86 176.25,210.81 M195.59,158.3 C194.93,159.99 194.23,161.58 193.5,163.04 M191.54,112.31 C190.37,112.76 189.17,113.62 187.95,114.89 M181.76,85.09 C180.83,85.97 179.89,87.1 178.97,88.47 M169.38,56.29 C169.26,59.56 168.96,62.96 168.5,66.4 M142.45,46.57 C141.68,48.45 140.95,50.42 140.26,52.47" style="stroke-width: 1px; stroke: rgb(255, 255, 255); stroke-opacity: 1; fill: none; fill-opacity: 0.13;"/></g><g class="arrow-line"><path class="connection real" stroke-dasharray="" d="  M400,153 L393,57" style="stroke: rgb(0, 0, 0); stroke-width: 1px; fill: none; fill-opacity: 1;"/></g><g class="arrow-line"><path class="connection real" stroke-dasharray="" d="  M284,54 L393,57" style="stroke: rgb(0, 0, 0); stroke-width: 1px; fill: none; fill-opacity: 1;"/></g><g class="arrow-line"><path class="connection real" stroke-dasharray="" d="  M342,222 L398.07,155.3" style="stroke: rgb(208, 2, 27); stroke-opacity: 1; stroke-width: 2px; fill: none; fill-opacity: 1;"/><g stroke="rgb(208,2,27)" stroke-opacity="1" transform="matrix(-0.6434558647337787,0.7654832134930883,-0.7654832134930883,-0.6434558647337787,399.99999999999994,153)" style="stroke: rgb(208, 2, 27); stroke-width: 2px;"><path d=" M14.21,-4.28 Q6.45,-0.59 0,0 Q6.45,0.59 14.21,4.28"/></g></g><g class="arrow-line"><path class="connection real" stroke-dasharray="" d="  M246,109 L340.06,219.71" style="stroke: rgb(208, 2, 27); stroke-opacity: 1; stroke-width: 2px; fill: none; fill-opacity: 1;"/><g stroke="rgb(208,2,27)" stroke-opacity="1" transform="matrix(-0.6474550868194019,-0.7621036088037378,0.7621036088037378,-0.6474550868194019,342,222)" style="stroke: rgb(208, 2, 27); stroke-width: 2px;"><path d=" M14.21,-4.28 Q6.45,-0.59 0,0 Q6.45,0.59 14.21,4.28"/></g></g><g class="arrow-line"><path class="connection real" stroke-dasharray="" d="  M172,69 L284,54" style="stroke: rgb(0, 0, 0); stroke-width: 1px; fill: none; fill-opacity: 1;"/></g><g class="arrow-line"><path class="connection real" stroke-dasharray="" d="  M162,221 L244.2,111.4" style="stroke: rgb(208, 2, 27); stroke-opacity: 1; stroke-width: 2px; fill: none; fill-opacity: 1;"/><g stroke="rgb(208,2,27)" stroke-opacity="1" transform="matrix(-0.6000014291326623,0.7999989281485087,-0.7999989281485087,-0.6000014291326623,246,109)" style="stroke: rgb(208, 2, 27); stroke-width: 2px;"><path d=" M14.21,-4.28 Q6.45,-0.59 0,0 Q6.45,0.59 14.21,4.28"/></g></g><g class="arrow-line"><path class="connection real" stroke-dasharray="" d="  M109,121 L160.6,218.35" style="stroke: rgb(208, 2, 27); stroke-opacity: 1; stroke-width: 2px; fill: none; fill-opacity: 1;"/><g stroke="rgb(208,2,27)" stroke-opacity="1" transform="matrix(-0.46823827814761537,-0.8836022379313876,0.8836022379313876,-0.46823827814761537,162,221)" style="stroke: rgb(208, 2, 27); stroke-width: 2px;"><path d=" M14.21,-4.28 Q6.45,-0.59 0,0 Q6.45,0.59 14.21,4.28"/></g></g><g class="arrow-line"><path class="connection real" stroke-dasharray="" d="  M109,121 L172,69" style="stroke: rgb(0, 0, 0); stroke-width: 1px; fill: none; fill-opacity: 1;"/></g><g class="composite-shape"><path class="real" d=" M99,121 C99,115.48 103.48,111 109,111 C114.52,111 119,115.48 119,121 C119,126.52 114.52,131 109,131 C103.48,131 99,126.52 99,121 Z" style="stroke-width: 1px; stroke: rgb(0, 0, 0); fill: rgb(126, 211, 33); fill-opacity: 1;"/></g><g class="composite-shape"><path class="real" d=" M152,221 C152,215.48 156.48,211 162,211 C167.52,211 172,215.48 172,221 C172,226.52 167.52,231 162,231 C156.48,231 152,226.52 152,221 Z" style="stroke-width: 1px; stroke: rgb(0, 0, 0); fill: rgb(126, 211, 33); fill-opacity: 1;"/></g><g class="composite-shape"><path class="real" d=" M162,69 C162,63.48 166.48,59 172,59 C177.52,59 182,63.48 182,69 C182,74.52 177.52,79 172,79 C166.48,79 162,74.52 162,69 Z" style="stroke-width: 1px; stroke: rgb(0, 0, 0); fill: rgb(126, 211, 33); fill-opacity: 1;"/></g><g class="composite-shape"><path class="real" d=" M236,109 C236,103.48 240.48,99 246,99 C251.52,99 256,103.48 256,109 C256,114.52 251.52,119 246,119 C240.48,119 236,114.52 236,109 Z" style="stroke-width: 1px; stroke: rgb(0, 0, 0); fill: rgb(126, 211, 33); fill-opacity: 1;"/></g><g class="composite-shape"><path class="real" d=" M332,222 C332,216.48 336.48,212 342,212 C347.52,212 352,216.48 352,222 C352,227.52 347.52,232 342,232 C336.48,232 332,227.52 332,222 Z" style="stroke-width: 1px; stroke: rgb(0, 0, 0); fill: rgb(126, 211, 33); fill-opacity: 1;"/></g><g class="composite-shape"><path class="real" d=" M274,54 C274,48.48 278.48,44 284,44 C289.52,44 294,48.48 294,54 C294,59.52 289.52,64 284,64 C278.48,64 274,59.52 274,54 Z" style="stroke-width: 1px; stroke: rgb(0, 0, 0); fill: rgb(126, 211, 33); fill-opacity: 1;"/></g><g class="composite-shape"><path class="real" d=" M383,57 C383,51.48 387.48,47 393,47 C398.52,47 403,51.48 403,57 C403,62.52 398.52,67 393,67 C387.48,67 383,62.52 383,57 Z" style="stroke-width: 1px; stroke: rgb(0, 0, 0); fill: rgb(126, 211, 33); fill-opacity: 1;"/></g><g class="composite-shape"><path class="real" d=" M390,153 C390,147.48 394.48,143 400,143 C405.52,143 410,147.48 410,153 C410,158.52 405.52,163 400,163 C394.48,163 390,158.52 390,153 Z" style="stroke-width: 1px; stroke: rgb(0, 0, 0); fill: rgb(126, 211, 33); fill-opacity: 1;"/></g><g class="arrow-line"><path class="connection real" stroke-dasharray="" d="  M105,58 L120.46,70.73" style="stroke: rgb(0, 0, 0); stroke-width: 1px; fill: none; fill-opacity: 1;"/><g stroke="#000" transform="matrix(-0.7719575273771966,-0.6356741114169153,0.6356741114169153,-0.7719575273771966,122,72)" style="stroke: rgb(0, 0, 0); stroke-width: 1px;"><path d=" M10.93,-3.29 Q4.96,-0.45 0,0 Q4.96,0.45 10.93,3.29"/></g></g><g class="arrow-line"><path class="connection real" stroke-dasharray="" d="  M436,90 L426.93,107.23" style="stroke: rgb(0, 0, 0); stroke-width: 1px; fill: none; fill-opacity: 1;"/><g stroke="#000" transform="matrix(0.4657689727137442,-0.8849063589200743,0.8849063589200743,0.4657689727137442,426,109)" style="stroke: rgb(0, 0, 0); stroke-width: 1px;"><path d=" M10.93,-3.29 Q4.96,-0.45 0,0 Q4.96,0.45 10.93,3.29"/></g></g><g class="arrow-line"><path class="connection real" stroke-dasharray="" d="  M65,121 L96,121" style="stroke: rgb(208, 2, 27); stroke-opacity: 1; stroke-width: 2px; fill: none; fill-opacity: 1;"/><g stroke="rgb(208,2,27)" stroke-opacity="1" transform="matrix(-1,1.2246467991473532e-16,-1.2246467991473532e-16,-1,98.99999999999999,121.00000000000001)" style="stroke: rgb(208, 2, 27); stroke-width: 2px;"><path d=" M14.21,-4.28 Q6.45,-0.59 0,0 Q6.45,0.59 14.21,4.28"/></g></g><g/></g><g/><g/><g/></svg>
        <svg xmlns="http://www.w3.org/2000/svg" xmlns:xlink="http://www.w3.org/1999/xlink" width="660" height="300" style="width:660px;height:300px;font-family:Asana-Math, Asana;background:#FFF;"><g><g><g><g transform="matrix(1,0,0,1,97,101.70001220703125)"><path transform="matrix(0.017,0,0,-0.017,0,0)" d="M105 664L160 662C184 661 195 653 195 635L112 125C95 34 94 31 54 28L13 25L9 -3L51 -2C92 -1 123 0 141 0C158 0 187 -1 227 -2L280 -3L283 25L218 28C192 29 182 37 182 58C182 67 183 74 186 93L284 648C320 654 336 656 355 656C457 656 506 612 506 519C506 411 434 323 346 323C324 323 304 328 267 342L269 311C306 293 326 288 355 288C484 288 594 405 594 541C594 642 531 695 412 692L108 692Z" stroke="rgb(0,0,0)" stroke-opacity="1" stroke-width="8" fill="rgb(0,0,0)" fill-opacity="1"></path></g></g><g><g><g><g><g transform="matrix(1,0,0,1,107.88330078125,105.00000610351563)"><path transform="matrix(0.0119,0,0,-0.0119,0,0)" d="M418 -3L418 27L366 30C311 33 301 44 301 96L301 700L60 598L67 548L217 614L217 96C217 44 206 33 152 30L96 27L96 -3C250 0 250 0 261 0C292 0 402 -3 418 -3Z" stroke="rgb(0,0,0)" stroke-opacity="1" stroke-width="8" fill="rgb(0,0,0)" fill-opacity="1"></path></g></g></g></g></g></g></g><g><g><g><g transform="matrix(1,0,0,1,161,48.70001220703125)"><path transform="matrix(0.017,0,0,-0.017,0,0)" d="M105 664L160 662C184 661 195 653 195 635L112 125C95 34 94 31 54 28L13 25L9 -3L51 -2C92 -1 123 0 141 0C158 0 187 -1 227 -2L280 -3L283 25L218 28C192 29 182 37 182 58C182 67 183 74 186 93L284 648C320 654 336 656 355 656C457 656 506 612 506 519C506 411 434 323 346 323C324 323 304 328 267 342L269 311C306 293 326 288 355 288C484 288 594 405 594 541C594 642 531 695 412 692L108 692Z" stroke="rgb(0,0,0)" stroke-opacity="1" stroke-width="8" fill="rgb(0,0,0)" fill-opacity="1"></path></g></g><g><g><g><g><g transform="matrix(1,0,0,1,171.88330078125,52.000006103515624)"><path transform="matrix(0.0119,0,0,-0.0119,0,0)" d="M16 23L16 -3C203 -3 203 0 239 0C275 0 275 -3 468 -3L468 82C353 77 307 81 122 77L304 270C401 373 431 428 431 503C431 618 353 689 226 689C154 689 105 669 56 619L39 483L68 483L81 529C97 587 133 612 200 612C286 612 341 558 341 473C341 398 299 324 186 204Z" stroke="rgb(0,0,0)" stroke-opacity="1" stroke-width="8" fill="rgb(0,0,0)" fill-opacity="1"></path></g></g></g></g></g></g></g><g><g><g><g transform="matrix(1,0,0,1,155,191.70001220703125)"><path transform="matrix(0.017,0,0,-0.017,0,0)" d="M105 664L160 662C184 661 195 653 195 635L112 125C95 34 94 31 54 28L13 25L9 -3L51 -2C92 -1 123 0 141 0C158 0 187 -1 227 -2L280 -3L283 25L218 28C192 29 182 37 182 58C182 67 183 74 186 93L284 648C320 654 336 656 355 656C457 656 506 612 506 519C506 411 434 323 346 323C324 323 304 328 267 342L269 311C306 293 326 288 355 288C484 288 594 405 594 541C594 642 531 695 412 692L108 692Z" stroke="rgb(0,0,0)" stroke-opacity="1" stroke-width="8" fill="rgb(0,0,0)" fill-opacity="1"></path></g></g><g><g><g><g><g transform="matrix(1,0,0,1,165.88330078125,195.00000610351563)"><path transform="matrix(0.0119,0,0,-0.0119,0,0)" d="M462 224C462 345 355 366 308 374C388 436 418 482 418 541C418 630 344 689 233 689C165 689 120 670 72 622L43 498L74 498L92 554C103 588 166 622 218 622C283 622 336 569 336 506C336 431 277 368 206 368C198 368 187 369 174 370L159 371L147 318L154 312C192 329 211 334 238 334C321 334 369 281 369 190C369 88 308 21 215 21C169 21 128 36 98 64C74 86 61 109 42 163L15 153C36 92 44 56 50 6C103 -12 147 -20 184 -20C307 -20 462 87 462 224Z" stroke="rgb(0,0,0)" stroke-opacity="1" stroke-width="8" fill="rgb(0,0,0)" fill-opacity="1"></path></g></g></g></g></g></g></g><g><g><g><g transform="matrix(1,0,0,1,236,86.70001220703125)"><path transform="matrix(0.017,0,0,-0.017,0,0)" d="M105 664L160 662C184 661 195 653 195 635L112 125C95 34 94 31 54 28L13 25L9 -3L51 -2C92 -1 123 0 141 0C158 0 187 -1 227 -2L280 -3L283 25L218 28C192 29 182 37 182 58C182 67 183 74 186 93L284 648C320 654 336 656 355 656C457 656 506 612 506 519C506 411 434 323 346 323C324 323 304 328 267 342L269 311C306 293 326 288 355 288C484 288 594 405 594 541C594 642 531 695 412 692L108 692Z" stroke="rgb(0,0,0)" stroke-opacity="1" stroke-width="8" fill="rgb(0,0,0)" fill-opacity="1"></path></g></g><g><g><g><g><g transform="matrix(1,0,0,1,246.88330078125,90.00000610351563)"><path transform="matrix(0.0119,0,0,-0.0119,0,0)" d="M280 181L280 106C280 46 269 32 220 30L158 27L158 -3C291 0 291 0 315 0C339 0 339 0 472 -3L472 27L424 30C375 33 364 46 364 106L364 181C423 181 444 180 472 177L472 248L364 245L365 697L285 667L2 204L2 181ZM280 245L65 245L280 597Z" stroke="rgb(0,0,0)" stroke-opacity="1" stroke-width="8" fill="rgb(0,0,0)" fill-opacity="1"></path></g></g></g></g></g></g></g><g><g><g><g transform="matrix(1,0,0,1,336,199.70001220703125)"><path transform="matrix(0.017,0,0,-0.017,0,0)" d="M105 664L160 662C184 661 195 653 195 635L112 125C95 34 94 31 54 28L13 25L9 -3L51 -2C92 -1 123 0 141 0C158 0 187 -1 227 -2L280 -3L283 25L218 28C192 29 182 37 182 58C182 67 183 74 186 93L284 648C320 654 336 656 355 656C457 656 506 612 506 519C506 411 434 323 346 323C324 323 304 328 267 342L269 311C306 293 326 288 355 288C484 288 594 405 594 541C594 642 531 695 412 692L108 692Z" stroke="rgb(0,0,0)" stroke-opacity="1" stroke-width="8" fill="rgb(0,0,0)" fill-opacity="1"></path></g></g><g><g><g><g><g transform="matrix(1,0,0,1,346.88330078125,203.00000610351563)"><path transform="matrix(0.0119,0,0,-0.0119,0,0)" d="M459 253C459 366 378 446 264 446C216 446 180 443 127 396L127 605L432 604L432 689L75 690L75 322L95 316C142 363 169 377 218 377C314 377 374 309 374 201C374 90 310 25 201 25C147 25 97 43 83 69L37 151L13 137C36 80 48 48 62 4C90 -11 130 -20 173 -20C301 -20 459 89 459 253Z" stroke="rgb(0,0,0)" stroke-opacity="1" stroke-width="8" fill="rgb(0,0,0)" fill-opacity="1"></path></g></g></g></g></g></g></g><g><g><g><g transform="matrix(1,0,0,1,279,34.70001220703125)"><path transform="matrix(0.017,0,0,-0.017,0,0)" d="M105 664L160 662C184 661 195 653 195 635L112 125C95 34 94 31 54 28L13 25L9 -3L51 -2C92 -1 123 0 141 0C158 0 187 -1 227 -2L280 -3L283 25L218 28C192 29 182 37 182 58C182 67 183 74 186 93L284 648C320 654 336 656 355 656C457 656 506 612 506 519C506 411 434 323 346 323C324 323 304 328 267 342L269 311C306 293 326 288 355 288C484 288 594 405 594 541C594 642 531 695 412 692L108 692Z" stroke="rgb(0,0,0)" stroke-opacity="1" stroke-width="8" fill="rgb(0,0,0)" fill-opacity="1"></path></g></g><g><g><g><g><g transform="matrix(1,0,0,1,289.88330078125,38.000006103515624)"><path transform="matrix(0.0119,0,0,-0.0119,0,0)" d="M131 331C152 512 241 611 421 665L379 689C283 657 242 637 191 593C88 506 32 384 32 247C32 82 112 -20 241 -20C371 -20 468 83 468 219C468 334 399 409 293 409C216 409 184 370 131 331ZM255 349C331 349 382 283 382 184C382 80 331 13 254 13C169 13 123 86 123 220C123 255 127 274 138 291C160 325 207 349 255 349Z" stroke="rgb(0,0,0)" stroke-opacity="1" stroke-width="8" fill="rgb(0,0,0)" fill-opacity="1"></path></g></g></g></g></g></g></g><g><g><g><g transform="matrix(1,0,0,1,388,36.70001220703125)"><path transform="matrix(0.017,0,0,-0.017,0,0)" d="M105 664L160 662C184 661 195 653 195 635L112 125C95 34 94 31 54 28L13 25L9 -3L51 -2C92 -1 123 0 141 0C158 0 187 -1 227 -2L280 -3L283 25L218 28C192 29 182 37 182 58C182 67 183 74 186 93L284 648C320 654 336 656 355 656C457 656 506 612 506 519C506 411 434 323 346 323C324 323 304 328 267 342L269 311C306 293 326 288 355 288C484 288 594 405 594 541C594 642 531 695 412 692L108 692Z" stroke="rgb(0,0,0)" stroke-opacity="1" stroke-width="8" fill="rgb(0,0,0)" fill-opacity="1"></path></g></g><g><g><g><g><g transform="matrix(1,0,0,1,398.88330078125,40.000006103515624)"><path transform="matrix(0.0119,0,0,-0.0119,0,0)" d="M409 603L47 -1L157 -1L497 659L497 689L44 689L44 477L74 477L81 533C89 595 96 603 142 603Z" stroke="rgb(0,0,0)" stroke-opacity="1" stroke-width="8" fill="rgb(0,0,0)" fill-opacity="1"></path></g></g></g></g></g></g></g><g><g><g><g transform="matrix(1,0,0,1,413,170.70001220703125)"><path transform="matrix(0.017,0,0,-0.017,0,0)" d="M105 664L160 662C184 661 195 653 195 635L112 125C95 34 94 31 54 28L13 25L9 -3L51 -2C92 -1 123 0 141 0C158 0 187 -1 227 -2L280 -3L283 25L218 28C192 29 182 37 182 58C182 67 183 74 186 93L284 648C320 654 336 656 355 656C457 656 506 612 506 519C506 411 434 323 346 323C324 323 304 328 267 342L269 311C306 293 326 288 355 288C484 288 594 405 594 541C594 642 531 695 412 692L108 692Z" stroke="rgb(0,0,0)" stroke-opacity="1" stroke-width="8" fill="rgb(0,0,0)" fill-opacity="1"></path></g></g><g><g><g><g><g transform="matrix(1,0,0,1,423.88330078125,174.00000610351563)"><path transform="matrix(0.0119,0,0,-0.0119,0,0)" d="M168 345C127 326 110 315 88 294C50 256 30 211 30 159C30 56 113 -20 226 -20C356 -20 464 82 464 206C464 286 427 329 313 381C404 443 436 485 436 545C436 631 365 689 259 689C140 689 53 613 53 508C53 440 80 402 168 345ZM284 295C347 267 385 218 385 164C385 80 322 14 241 14C156 14 101 74 101 167C101 240 130 286 204 331ZM223 423C160 454 128 494 128 544C128 610 176 655 247 655C320 655 368 607 368 534C368 477 343 438 278 396Z" stroke="rgb(0,0,0)" stroke-opacity="1" stroke-width="8" fill="rgb(0,0,0)" fill-opacity="1"></path></g></g></g></g></g></g></g><g><g><g><g><g><g><g transform="matrix(1,0,0,1,92,176.9)"><path transform="matrix(0.0119,0,0,-0.0119,0,0)" d="M418 -3L418 27L366 30C311 33 301 44 301 96L301 700L60 598L67 548L217 614L217 96C217 44 206 33 152 30L96 27L96 -3C250 0 250 0 261 0C292 0 402 -3 418 -3Z" stroke="rgb(208,2,27)" stroke-opacity="1" stroke-width="8" fill="rgb(208,2,27)" fill-opacity="1"></path></g></g></g></g><g><g><g><g transform="matrix(1,0,0,1,91.5166015625,189.1166748046875)"><path transform="matrix(0.0119,0,0,-0.0119,0,0)" d="M462 224C462 345 355 366 308 374C388 436 418 482 418 541C418 630 344 689 233 689C165 689 120 670 72 622L43 498L74 498L92 554C103 588 166 622 218 622C283 622 336 569 336 506C336 431 277 368 206 368C198 368 187 369 174 370L159 371L147 318L154 312C192 329 211 334 238 334C321 334 369 281 369 190C369 88 308 21 215 21C169 21 128 36 98 64C74 86 61 109 42 163L15 153C36 92 44 56 50 6C103 -12 147 -20 184 -20C307 -20 462 87 462 224Z" stroke="rgb(208,2,27)" stroke-opacity="1" stroke-width="8" fill="rgb(208,2,27)" fill-opacity="1"></path></g></g></g></g></g><g><g transform="matrix(1,0,0,1,98.949951171875,183.45001220703125)"><path transform="matrix(0.017,0,0,-0.017,0,0)" d="M349 664L352 692L238 689C222 689 204 689 161 690L97 692L94 664L141 662C165 661 176 653 176 635L81 55C77 37 65 30 21 23L16 -3L57 -2C88 -1 150 0 170 0C170 0 467 -1 467 -1C467 -1 500 0 500 0C499 25 510 103 523 165L492 165L475 103C466 71 457 54 448 49C435 44 371 39 304 39C255 39 228 40 162 46C165 64 256 605 256 613C263 651 270 658 307 661Z" stroke="rgb(208,2,27)" stroke-opacity="1" stroke-width="8" fill="rgb(208,2,27)" fill-opacity="1"></path></g></g><g><g><g><g><g transform="matrix(1,0,0,1,108.9000244140625,186.75000610351563)"><path transform="matrix(0.0119,0,0,-0.0119,0,0)" d="M125 390L69 107C68 99 56 61 56 31C56 6 67 -9 86 -9C121 -9 156 11 234 74L265 99L255 117L210 86C181 66 161 56 150 56C141 56 136 64 136 76C136 102 150 183 179 328L192 390L299 390L310 440C272 436 238 434 200 434C216 528 227 577 245 631L234 646C214 634 187 622 156 610L131 440C87 419 61 408 43 403L41 390Z" stroke="rgb(208,2,27)" stroke-opacity="1" stroke-width="8" fill="rgb(208,2,27)" fill-opacity="1"></path></g></g></g></g></g></g></g><g><g><g><g><g><g><g transform="matrix(1,0,0,1,198,183.9)"><path transform="matrix(0.0119,0,0,-0.0119,0,0)" d="M462 224C462 345 355 366 308 374C388 436 418 482 418 541C418 630 344 689 233 689C165 689 120 670 72 622L43 498L74 498L92 554C103 588 166 622 218 622C283 622 336 569 336 506C336 431 277 368 206 368C198 368 187 369 174 370L159 371L147 318L154 312C192 329 211 334 238 334C321 334 369 281 369 190C369 88 308 21 215 21C169 21 128 36 98 64C74 86 61 109 42 163L15 153C36 92 44 56 50 6C103 -12 147 -20 184 -20C307 -20 462 87 462 224Z" stroke="rgb(208,2,27)" stroke-opacity="1" stroke-width="8" fill="rgb(208,2,27)" fill-opacity="1"></path></g></g></g></g><g><g><g><g transform="matrix(1,0,0,1,197.5166015625,196.1166748046875)"><path transform="matrix(0.0119,0,0,-0.0119,0,0)" d="M280 181L280 106C280 46 269 32 220 30L158 27L158 -3C291 0 291 0 315 0C339 0 339 0 472 -3L472 27L424 30C375 33 364 46 364 106L364 181C423 181 444 180 472 177L472 248L364 245L365 697L285 667L2 204L2 181ZM280 245L65 245L280 597Z" stroke="rgb(208,2,27)" stroke-opacity="1" stroke-width="8" fill="rgb(208,2,27)" fill-opacity="1"></path></g></g></g></g></g><g><g transform="matrix(1,0,0,1,204.949951171875,190.45001220703125)"><path transform="matrix(0.017,0,0,-0.017,0,0)" d="M349 664L352 692L238 689C222 689 204 689 161 690L97 692L94 664L141 662C165 661 176 653 176 635L81 55C77 37 65 30 21 23L16 -3L57 -2C88 -1 150 0 170 0C170 0 467 -1 467 -1C467 -1 500 0 500 0C499 25 510 103 523 165L492 165L475 103C466 71 457 54 448 49C435 44 371 39 304 39C255 39 228 40 162 46C165 64 256 605 256 613C263 651 270 658 307 661Z" stroke="rgb(208,2,27)" stroke-opacity="1" stroke-width="8" fill="rgb(208,2,27)" fill-opacity="1"></path></g></g><g><g><g><g><g transform="matrix(1,0,0,1,214.9000244140625,193.75000610351563)"><path transform="matrix(0.0119,0,0,-0.0119,0,0)" d="M125 390L69 107C68 99 56 61 56 31C56 6 67 -9 86 -9C121 -9 156 11 234 74L265 99L255 117L210 86C181 66 161 56 150 56C141 56 136 64 136 76C136 102 150 183 179 328L192 390L299 390L310 440C272 436 238 434 200 434C216 528 227 577 245 631L234 646C214 634 187 622 156 610L131 440C87 419 61 408 43 403L41 390Z" stroke="rgb(208,2,27)" stroke-opacity="1" stroke-width="8" fill="rgb(208,2,27)" fill-opacity="1"></path></g></g></g></g></g></g></g><g><g><g><g><g><g><g transform="matrix(1,0,0,1,274,180.9)"><path transform="matrix(0.0119,0,0,-0.0119,0,0)" d="M280 181L280 106C280 46 269 32 220 30L158 27L158 -3C291 0 291 0 315 0C339 0 339 0 472 -3L472 27L424 30C375 33 364 46 364 106L364 181C423 181 444 180 472 177L472 248L364 245L365 697L285 667L2 204L2 181ZM280 245L65 245L280 597Z" stroke="rgb(208,2,27)" stroke-opacity="1" stroke-width="8" fill="rgb(208,2,27)" fill-opacity="1"></path></g></g></g></g><g><g><g><g transform="matrix(1,0,0,1,273.5166015625,193.1166748046875)"><path transform="matrix(0.0119,0,0,-0.0119,0,0)" d="M459 253C459 366 378 446 264 446C216 446 180 443 127 396L127 605L432 604L432 689L75 690L75 322L95 316C142 363 169 377 218 377C314 377 374 309 374 201C374 90 310 25 201 25C147 25 97 43 83 69L37 151L13 137C36 80 48 48 62 4C90 -11 130 -20 173 -20C301 -20 459 89 459 253Z" stroke="rgb(208,2,27)" stroke-opacity="1" stroke-width="8" fill="rgb(208,2,27)" fill-opacity="1"></path></g></g></g></g></g><g><g transform="matrix(1,0,0,1,280.949951171875,187.45001220703125)"><path transform="matrix(0.017,0,0,-0.017,0,0)" d="M349 664L352 692L238 689C222 689 204 689 161 690L97 692L94 664L141 662C165 661 176 653 176 635L81 55C77 37 65 30 21 23L16 -3L57 -2C88 -1 150 0 170 0C170 0 467 -1 467 -1C467 -1 500 0 500 0C499 25 510 103 523 165L492 165L475 103C466 71 457 54 448 49C435 44 371 39 304 39C255 39 228 40 162 46C165 64 256 605 256 613C263 651 270 658 307 661Z" stroke="rgb(208,2,27)" stroke-opacity="1" stroke-width="8" fill="rgb(208,2,27)" fill-opacity="1"></path></g></g><g><g><g><g><g transform="matrix(1,0,0,1,290.9000244140625,190.75000610351563)"><path transform="matrix(0.0119,0,0,-0.0119,0,0)" d="M125 390L69 107C68 99 56 61 56 31C56 6 67 -9 86 -9C121 -9 156 11 234 74L265 99L255 117L210 86C181 66 161 56 150 56C141 56 136 64 136 76C136 102 150 183 179 328L192 390L299 390L310 440C272 436 238 434 200 434C216 528 227 577 245 631L234 646C214 634 187 622 156 610L131 440C87 419 61 408 43 403L41 390Z" stroke="rgb(208,2,27)" stroke-opacity="1" stroke-width="8" fill="rgb(208,2,27)" fill-opacity="1"></path></g></g></g></g></g></g></g><g><g><g><g><g><g><g transform="matrix(1,0,0,1,381,196.9)"><path transform="matrix(0.0119,0,0,-0.0119,0,0)" d="M459 253C459 366 378 446 264 446C216 446 180 443 127 396L127 605L432 604L432 689L75 690L75 322L95 316C142 363 169 377 218 377C314 377 374 309 374 201C374 90 310 25 201 25C147 25 97 43 83 69L37 151L13 137C36 80 48 48 62 4C90 -11 130 -20 173 -20C301 -20 459 89 459 253Z" stroke="rgb(208,2,27)" stroke-opacity="1" stroke-width="8" fill="rgb(208,2,27)" fill-opacity="1"></path></g></g></g></g><g><g><g><g transform="matrix(1,0,0,1,380.5166015625,209.1166748046875)"><path transform="matrix(0.0119,0,0,-0.0119,0,0)" d="M168 345C127 326 110 315 88 294C50 256 30 211 30 159C30 56 113 -20 226 -20C356 -20 464 82 464 206C464 286 427 329 313 381C404 443 436 485 436 545C436 631 365 689 259 689C140 689 53 613 53 508C53 440 80 402 168 345ZM284 295C347 267 385 218 385 164C385 80 322 14 241 14C156 14 101 74 101 167C101 240 130 286 204 331ZM223 423C160 454 128 494 128 544C128 610 176 655 247 655C320 655 368 607 368 534C368 477 343 438 278 396Z" stroke="rgb(208,2,27)" stroke-opacity="1" stroke-width="8" fill="rgb(208,2,27)" fill-opacity="1"></path></g></g></g></g></g><g><g transform="matrix(1,0,0,1,387.949951171875,203.45001220703125)"><path transform="matrix(0.017,0,0,-0.017,0,0)" d="M349 664L352 692L238 689C222 689 204 689 161 690L97 692L94 664L141 662C165 661 176 653 176 635L81 55C77 37 65 30 21 23L16 -3L57 -2C88 -1 150 0 170 0C170 0 467 -1 467 -1C467 -1 500 0 500 0C499 25 510 103 523 165L492 165L475 103C466 71 457 54 448 49C435 44 371 39 304 39C255 39 228 40 162 46C165 64 256 605 256 613C263 651 270 658 307 661Z" stroke="rgb(208,2,27)" stroke-opacity="1" stroke-width="8" fill="rgb(208,2,27)" fill-opacity="1"></path></g></g><g><g><g><g><g transform="matrix(1,0,0,1,397.9000244140625,206.75000610351563)"><path transform="matrix(0.0119,0,0,-0.0119,0,0)" d="M125 390L69 107C68 99 56 61 56 31C56 6 67 -9 86 -9C121 -9 156 11 234 74L265 99L255 117L210 86C181 66 161 56 150 56C141 56 136 64 136 76C136 102 150 183 179 328L192 390L299 390L310 440C272 436 238 434 200 434C216 528 227 577 245 631L234 646C214 634 187 622 156 610L131 440C87 419 61 408 43 403L41 390Z" stroke="rgb(208,2,27)" stroke-opacity="1" stroke-width="8" fill="rgb(208,2,27)" fill-opacity="1"></path></g></g></g></g></g></g></g><g><g><g><g transform="matrix(1,0,0,1,154,251.45001220703125)"><path transform="matrix(0.017,0,0,-0.017,0,0)" d="M349 664L352 692L238 689C222 689 204 689 161 690L97 692L94 664L141 662C165 661 176 653 176 635L81 55C77 37 65 30 21 23L16 -3L57 -2C88 -1 150 0 170 0C170 0 467 -1 467 -1C467 -1 500 0 500 0C499 25 510 103 523 165L492 165L475 103C466 71 457 54 448 49C435 44 371 39 304 39C255 39 228 40 162 46C165 64 256 605 256 613C263 651 270 658 307 661Z" stroke="rgb(208,2,27)" stroke-opacity="1" stroke-width="8" fill="rgb(208,2,27)" fill-opacity="1"></path></g></g><g><g><g><g><g transform="matrix(1,0,0,1,164.433349609375,244.9)"><path transform="matrix(0.0119,0,0,-0.0119,0,0)" d="M462 224C462 345 355 366 308 374C388 436 418 482 418 541C418 630 344 689 233 689C165 689 120 670 72 622L43 498L74 498L92 554C103 588 166 622 218 622C283 622 336 569 336 506C336 431 277 368 206 368C198 368 187 369 174 370L159 371L147 318L154 312C192 329 211 334 238 334C321 334 369 281 369 190C369 88 308 21 215 21C169 21 128 36 98 64C74 86 61 109 42 163L15 153C36 92 44 56 50 6C103 -12 147 -20 184 -20C307 -20 462 87 462 224Z" stroke="rgb(208,2,27)" stroke-opacity="1" stroke-width="8" fill="rgb(208,2,27)" fill-opacity="1"></path></g></g></g></g><g><g><g><g transform="matrix(1,0,0,1,163.949951171875,255.4)"><path transform="matrix(0.0119,0,0,-0.0119,0,0)" d="M166 420C187 420 203 421 229 424C118 304 76 221 76 121C76 44 122 -11 186 -11C324 -11 477 236 477 384C477 441 451 482 415 482C402 482 390 478 382 470L332 423L343 404C352 410 361 413 370 413C397 413 413 390 413 350C413 202 316 39 228 39C179 39 148 81 148 146C148 251 187 342 285 464L275 482C255 473 242 470 214 470C186 470 144 472 115 475L103 476C97 477 92 477 91 477C79 477 70 475 59 470C45 443 34 407 21 352L43 352L60 394C67 411 87 422 111 422C144 422 128 420 166 420Z" stroke="rgb(208,2,27)" stroke-opacity="1" stroke-width="8" fill="rgb(208,2,27)" fill-opacity="1"></path></g></g></g></g></g></g></g><g><g><g><g transform="matrix(1,0,0,1,239,145.45001220703125)"><path transform="matrix(0.017,0,0,-0.017,0,0)" d="M349 664L352 692L238 689C222 689 204 689 161 690L97 692L94 664L141 662C165 661 176 653 176 635L81 55C77 37 65 30 21 23L16 -3L57 -2C88 -1 150 0 170 0C170 0 467 -1 467 -1C467 -1 500 0 500 0C499 25 510 103 523 165L492 165L475 103C466 71 457 54 448 49C435 44 371 39 304 39C255 39 228 40 162 46C165 64 256 605 256 613C263 651 270 658 307 661Z" stroke="rgb(208,2,27)" stroke-opacity="1" stroke-width="8" fill="rgb(208,2,27)" fill-opacity="1"></path></g></g><g><g><g><g><g transform="matrix(1,0,0,1,249.433349609375,138.9)"><path transform="matrix(0.0119,0,0,-0.0119,0,0)" d="M280 181L280 106C280 46 269 32 220 30L158 27L158 -3C291 0 291 0 315 0C339 0 339 0 472 -3L472 27L424 30C375 33 364 46 364 106L364 181C423 181 444 180 472 177L472 248L364 245L365 697L285 667L2 204L2 181ZM280 245L65 245L280 597Z" stroke="rgb(208,2,27)" stroke-opacity="1" stroke-width="8" fill="rgb(208,2,27)" fill-opacity="1"></path></g></g></g></g><g><g><g><g transform="matrix(1,0,0,1,248.949951171875,150.04999389648438)"><path transform="matrix(0.0119,0,0,-0.0119,0,0)" d="M166 420C187 420 203 421 229 424C118 304 76 221 76 121C76 44 122 -11 186 -11C324 -11 477 236 477 384C477 441 451 482 415 482C402 482 390 478 382 470L332 423L343 404C352 410 361 413 370 413C397 413 413 390 413 350C413 202 316 39 228 39C179 39 148 81 148 146C148 251 187 342 285 464L275 482C255 473 242 470 214 470C186 470 144 472 115 475L103 476C97 477 92 477 91 477C79 477 70 475 59 470C45 443 34 407 21 352L43 352L60 394C67 411 87 422 111 422C144 422 128 420 166 420Z" stroke="rgb(208,2,27)" stroke-opacity="1" stroke-width="8" fill="rgb(208,2,27)" fill-opacity="1"></path></g></g><g><g><g></g></g></g></g></g></g></g></g><g><g><g><g transform="matrix(1,0,0,1,333,256.45001220703125)"><path transform="matrix(0.017,0,0,-0.017,0,0)" d="M349 664L352 692L238 689C222 689 204 689 161 690L97 692L94 664L141 662C165 661 176 653 176 635L81 55C77 37 65 30 21 23L16 -3L57 -2C88 -1 150 0 170 0C170 0 467 -1 467 -1C467 -1 500 0 500 0C499 25 510 103 523 165L492 165L475 103C466 71 457 54 448 49C435 44 371 39 304 39C255 39 228 40 162 46C165 64 256 605 256 613C263 651 270 658 307 661Z" stroke="rgb(208,2,27)" stroke-opacity="1" stroke-width="8" fill="rgb(208,2,27)" fill-opacity="1"></path></g></g><g><g><g><g><g transform="matrix(1,0,0,1,343.433349609375,249.9)"><path transform="matrix(0.0119,0,0,-0.0119,0,0)" d="M459 253C459 366 378 446 264 446C216 446 180 443 127 396L127 605L432 604L432 689L75 690L75 322L95 316C142 363 169 377 218 377C314 377 374 309 374 201C374 90 310 25 201 25C147 25 97 43 83 69L37 151L13 137C36 80 48 48 62 4C90 -11 130 -20 173 -20C301 -20 459 89 459 253Z" stroke="rgb(208,2,27)" stroke-opacity="1" stroke-width="8" fill="rgb(208,2,27)" fill-opacity="1"></path></g></g></g></g><g><g><g><g transform="matrix(1,0,0,1,342.949951171875,260.4)"><path transform="matrix(0.0119,0,0,-0.0119,0,0)" d="M166 420C187 420 203 421 229 424C118 304 76 221 76 121C76 44 122 -11 186 -11C324 -11 477 236 477 384C477 441 451 482 415 482C402 482 390 478 382 470L332 423L343 404C352 410 361 413 370 413C397 413 413 390 413 350C413 202 316 39 228 39C179 39 148 81 148 146C148 251 187 342 285 464L275 482C255 473 242 470 214 470C186 470 144 472 115 475L103 476C97 477 92 477 91 477C79 477 70 475 59 470C45 443 34 407 21 352L43 352L60 394C67 411 87 422 111 422C144 422 128 420 166 420Z" stroke="rgb(208,2,27)" stroke-opacity="1" stroke-width="8" fill="rgb(208,2,27)" fill-opacity="1"></path></g></g></g></g></g></g></g><g><g><g><g transform="matrix(1,0,0,1,402,131.45001220703125)"><path transform="matrix(0.017,0,0,-0.017,0,0)" d="M349 664L352 692L238 689C222 689 204 689 161 690L97 692L94 664L141 662C165 661 176 653 176 635L81 55C77 37 65 30 21 23L16 -3L57 -2C88 -1 150 0 170 0C170 0 467 -1 467 -1C467 -1 500 0 500 0C499 25 510 103 523 165L492 165L475 103C466 71 457 54 448 49C435 44 371 39 304 39C255 39 228 40 162 46C165 64 256 605 256 613C263 651 270 658 307 661Z" stroke="rgb(208,2,27)" stroke-opacity="1" stroke-width="8" fill="rgb(208,2,27)" fill-opacity="1"></path></g></g><g><g><g><g><g transform="matrix(1,0,0,1,412.433349609375,124.9)"><path transform="matrix(0.0119,0,0,-0.0119,0,0)" d="M168 345C127 326 110 315 88 294C50 256 30 211 30 159C30 56 113 -20 226 -20C356 -20 464 82 464 206C464 286 427 329 313 381C404 443 436 485 436 545C436 631 365 689 259 689C140 689 53 613 53 508C53 440 80 402 168 345ZM284 295C347 267 385 218 385 164C385 80 322 14 241 14C156 14 101 74 101 167C101 240 130 286 204 331ZM223 423C160 454 128 494 128 544C128 610 176 655 247 655C320 655 368 607 368 534C368 477 343 438 278 396Z" stroke="rgb(208,2,27)" stroke-opacity="1" stroke-width="8" fill="rgb(208,2,27)" fill-opacity="1"></path></g></g></g></g><g><g><g><g transform="matrix(1,0,0,1,411.949951171875,135.4)"><path transform="matrix(0.0119,0,0,-0.0119,0,0)" d="M166 420C187 420 203 421 229 424C118 304 76 221 76 121C76 44 122 -11 186 -11C324 -11 477 236 477 384C477 441 451 482 415 482C402 482 390 478 382 470L332 423L343 404C352 410 361 413 370 413C397 413 413 390 413 350C413 202 316 39 228 39C179 39 148 81 148 146C148 251 187 342 285 464L275 482C255 473 242 470 214 470C186 470 144 472 115 475L103 476C97 477 92 477 91 477C79 477 70 475 59 470C45 443 34 407 21 352L43 352L60 394C67 411 87 422 111 422C144 422 128 420 166 420Z" stroke="rgb(208,2,27)" stroke-opacity="1" stroke-width="8" fill="rgb(208,2,27)" fill-opacity="1"></path></g></g></g></g></g></g></g><g><g><g><g transform="matrix(1,0,0,1,123,127.70001220703125)"><path transform="matrix(0.017,0,0,-0.017,0,0)" d="M349 664L352 692L238 689C222 689 204 689 161 690L97 692L94 664L141 662C165 661 176 653 176 635L81 55C77 37 65 30 21 23L16 -3L57 -2C88 -1 150 0 170 0C170 0 467 -1 467 -1C467 -1 500 0 500 0C499 25 510 103 523 165L492 165L475 103C466 71 457 54 448 49C435 44 371 39 304 39C255 39 228 40 162 46C165 64 256 605 256 613C263 651 270 658 307 661Z" stroke="rgb(208,2,27)" stroke-opacity="1" stroke-width="8" fill="rgb(208,2,27)" fill-opacity="1"></path></g></g><g><g><g><g><g transform="matrix(1,0,0,1,132.949951171875,130.65)"><path transform="matrix(0.0119,0,0,-0.0119,0,0)" d="M176 -11C232 -11 347 62 390 125C431 186 465 296 465 371C465 438 442 482 406 482C364 482 311 456 259 409C218 374 198 348 162 289L186 408C189 425 191 440 191 452C191 471 183 482 169 482C148 482 110 461 36 408L8 388L15 368L47 389C75 407 86 412 95 412C105 412 112 403 112 389C112 381 110 361 108 351L50 8C40 -52 21 -143 1 -233L-7 -270L0 -276C21 -269 41 -264 73 -259L115 3C136 -4 158 -11 176 -11ZM143 165C165 293 272 424 355 424C381 424 393 402 393 356C393 275 353 156 300 80C280 51 248 36 207 36C176 36 151 43 125 59ZM774 482C707 482 554 419 554 259C554 182 599 136 676 136C684 136 695 136 706 137L665 99C649 84 638 66 638 52C638 42 645 31 659 19C590 -4 462 -48 462 -159C462 -230 532 -276 641 -276C770 -276 883 -204 883 -121C883 -85 862 -49 819 -14L759 35C725 62 712 81 712 100C712 114 727 128 739 146C837 170 908 253 908 342C908 357 905 376 904 380C921 378 929 378 938 378C955 378 965 379 988 382L997 427L994 433C966 426 946 424 892 424C892 425 868 482 774 482ZM675 1L752 -58C798 -94 817 -121 817 -154C817 -206 748 -248 665 -248C583 -248 526 -206 526 -145C526 -43 636 -11 675 1ZM749 448C807 448 836 412 836 341C836 238 788 168 718 168C657 168 625 209 625 288C625 383 676 448 749 448ZM1326 111L1302 94C1249 56 1201 36 1165 36C1118 36 1089 73 1089 133C1089 158 1092 185 1097 214C1114 218 1223 248 1248 259C1333 296 1372 342 1372 404C1372 451 1338 482 1288 482C1220 496 1110 423 1073 349C1043 299 1013 180 1013 113C1013 35 1057 -11 1129 -11C1186 -11 1242 17 1334 92ZM1111 274C1128 343 1148 386 1177 412C1195 428 1226 440 1250 440C1279 440 1298 420 1298 388C1298 344 1263 297 1211 272C1183 258 1147 247 1102 237ZM1410 388L1417 368L1449 389C1486 412 1489 414 1496 414C1507 414 1514 404 1514 389C1514 338 1473 145 1432 2L1439 -9C1464 -2 1487 4 1509 8C1528 134 1549 199 1595 268C1649 352 1724 414 1769 414C1780 414 1786 405 1786 390C1786 372 1783 351 1775 319L1723 107C1714 70 1710 47 1710 31C1710 6 1721 -9 1740 -9C1766 -9 1802 12 1900 85L1890 103L1864 86C1835 67 1813 56 1803 56C1796 56 1790 65 1790 76C1790 81 1791 92 1792 96L1858 372C1865 401 1869 429 1869 446C1869 469 1858 482 1838 482C1796 482 1727 444 1668 389C1630 354 1602 320 1550 247L1588 408C1592 426 1594 438 1594 449C1594 470 1586 482 1571 482C1550 482 1511 460 1438 408Z" stroke="rgb(208,2,27)" stroke-opacity="1" stroke-width="8" fill="rgb(208,2,27)" fill-opacity="1"></path></g></g></g></g></g></g></g><g><g><g><g transform="matrix(1,0,0,1,65,49.483349609375)"><path transform="matrix(0.015300000000000001,0,0,-0.015300000000000001,0,0)" d="M105 664L160 662C184 661 195 653 195 635L112 125C95 34 94 31 54 28L13 25L9 -3L51 -2C92 -1 123 0 141 0C158 0 187 -1 227 -2L280 -3L283 25L218 28C192 29 182 37 182 58C182 67 183 74 186 93L284 648C320 654 336 656 355 656C457 656 506 612 506 519C506 411 434 323 346 323C324 323 304 328 267 342L269 311C306 293 326 288 355 288C484 288 594 405 594 541C594 642 531 695 412 692L108 692Z" stroke="rgb(0,0,0)" stroke-opacity="1" stroke-width="8" fill="rgb(0,0,0)" fill-opacity="1"></path></g></g><g><g><g><g><g transform="matrix(1,0,0,1,74.800048828125,52.9933251953125)"><path transform="matrix(0.01071,0,0,-0.01071,0,0)" d="M418 -3L418 27L366 30C311 33 301 44 301 96L301 700L60 598L67 548L217 614L217 96C217 44 206 33 152 30L96 27L96 -3C250 0 250 0 261 0C292 0 402 -3 418 -3Z" stroke="rgb(0,0,0)" stroke-opacity="1" stroke-width="8" fill="rgb(0,0,0)" fill-opacity="1"></path></g></g></g></g></g><g><g transform="matrix(1,0,0,1,81.066650390625,49.483349609375)"><path transform="matrix(0.015300000000000001,0,0,-0.015300000000000001,0,0)" d="M979 103L953 86C924 67 902 56 892 56C885 56 879 65 879 76C879 86 881 95 886 116L961 413C965 430 968 446 968 454C968 471 958 482 942 482C913 482 875 464 814 421C751 376 716 341 667 272L697 409C701 429 704 444 704 451C704 470 694 482 678 482C648 482 602 460 547 418C503 384 483 363 418 275L451 408C455 424 457 439 457 451C457 470 448 482 434 482C413 482 375 461 301 408L273 388L280 368C317 391 352 414 359 414C370 414 377 404 377 389C377 338 336 145 295 2L298 -9L366 6L388 108C412 219 439 278 494 338C536 384 581 414 609 414C616 414 620 406 620 393C620 358 598 244 557 69L541 2L546 -9L615 6L636 113C652 194 686 269 730 318C785 379 835 414 867 414C875 414 880 405 880 389C880 365 877 351 855 264C815 105 799 84 799 31C799 6 810 -9 829 -9C855 -9 891 12 989 85ZM1354 111L1330 94C1277 56 1229 36 1193 36C1146 36 1117 73 1117 133C1117 158 1120 185 1125 214C1142 218 1251 248 1276 259C1361 296 1400 342 1400 404C1400 451 1366 482 1316 482C1248 496 1138 423 1101 349C1071 299 1041 180 1041 113C1041 35 1085 -11 1157 -11C1214 -11 1270 17 1362 92ZM1139 274C1156 343 1176 386 1205 412C1223 428 1254 440 1278 440C1307 440 1326 420 1326 388C1326 344 1291 297 1239 272C1211 258 1175 247 1130 237ZM1445 148C1440 97 1434 62 1423 16C1461 -2 1495 -11 1530 -11C1579 -11 1625 7 1676 47C1727 87 1748 124 1748 174C1748 228 1716 257 1642 271L1599 279C1539 290 1520 307 1520 348C1520 401 1565 442 1622 442C1663 442 1701 424 1717 397L1717 342L1740 342C1744 377 1748 404 1759 455C1720 474 1692 482 1659 482C1607 482 1546 452 1498 404C1472 377 1461 352 1461 316C1461 260 1492 228 1558 215L1621 203C1665 195 1681 177 1681 138C1681 73 1635 29 1564 29C1529 29 1498 40 1470 64L1470 148ZM2038 722L2026 733C1981 711 1940 697 1866 691L1862 670L1910 670C1928 670 1944 667 1944 647C1944 641 1944 632 1942 622L1900 388C1880 272 1838 80 1812 2L1819 -9L1888 7C1896 64 1910 164 1950 236C1995 317 2098 414 2140 414C2151 414 2162 407 2162 393C2162 375 2157 342 2147 303L2096 107C2090 85 2083 55 2083 31C2083 6 2093 -9 2114 -9C2146 -9 2214 41 2273 85L2263 103L2237 86C2214 71 2188 56 2176 56C2169 56 2163 65 2163 76C2163 88 2166 101 2170 116L2234 372C2240 398 2245 423 2245 447C2245 464 2239 482 2213 482C2178 482 2101 437 2033 374C2000 343 1974 308 1946 273L1942 275Z" stroke="rgb(0,0,0)" stroke-opacity="1" stroke-width="8" fill="rgb(0,0,0)" fill-opacity="1"></path></g></g></g><g><g><g transform="matrix(1,0,0,1,65,69.616650390625)"><path transform="matrix(0.015300000000000001,0,0,-0.015300000000000001,0,0)" d="M316 -3C388 -3 437 8 489 34C645 114 741 265 741 431C741 529 711 599 650 642C604 675 519 693 424 692L220 689L210 689C201 689 198 689 97 692L94 664L147 662C171 661 182 653 182 635C182 621 178 589 173 559L86 55C81 31 56 29 33 23L28 -3L121 0L176 0C211 0 282 -3 316 -3ZM384 655C566 655 649 579 649 415C649 225 549 41 329 41C285 41 236 46 168 56C168 68 169 75 172 93L268 650C291 650 349 655 384 655Z" stroke="rgb(0,0,0)" stroke-opacity="1" stroke-width="8" fill="rgb(0,0,0)" fill-opacity="1"></path></g></g><g><g transform="matrix(1,0,0,1,81.4666748046875,69.616650390625)"><path transform="matrix(0.015300000000000001,0,0,-0.015300000000000001,0,0)" d="M604 347L604 406L65 406L65 347ZM604 134L604 193L65 193L65 134Z" stroke="rgb(0,0,0)" stroke-opacity="1" stroke-width="8" fill="rgb(0,0,0)" fill-opacity="1"></path></g></g><g><g transform="matrix(1,0,0,1,96.2666015625,69.616650390625)"><path transform="matrix(0.015300000000000001,0,0,-0.015300000000000001,0,0)" d="M16 23L16 -3C203 -3 203 0 239 0C275 0 275 -3 468 -3L468 82C353 77 307 81 122 77L304 270C401 373 431 428 431 503C431 618 353 689 226 689C154 689 105 669 56 619L39 483L68 483L81 529C97 587 133 612 200 612C286 612 341 558 341 473C341 398 299 324 186 204Z" stroke="rgb(0,0,0)" stroke-opacity="1" stroke-width="8" fill="rgb(0,0,0)" fill-opacity="1"></path></g></g></g></g><g><g><g><text x="65" y="116.72501220703126" style="white-space:pre;stroke:none;fill:rgb(0,0,0);fill-opacity:1;font-size:17px;font-family:Asana-Math, Asana;font-weight:400;font-style:normal;dominant-baseline:auto;text-decoration:rgb(0, 0, 0);">✉️</text></g></g></g><g><g><g><g transform="matrix(1,0,0,1,420,66.483349609375)"><path transform="matrix(0.015300000000000001,0,0,-0.015300000000000001,0,0)" d="M105 664L160 662C184 661 195 653 195 635L112 125C95 34 94 31 54 28L13 25L9 -3L51 -2C92 -1 123 0 141 0C158 0 187 -1 227 -2L280 -3L283 25L218 28C192 29 182 37 182 58C182 67 183 74 186 93L284 648C320 654 336 656 355 656C457 656 506 612 506 519C506 411 434 323 346 323C324 323 304 328 267 342L269 311C306 293 326 288 355 288C484 288 594 405 594 541C594 642 531 695 412 692L108 692Z" stroke="rgb(0,0,0)" stroke-opacity="1" stroke-width="8" fill="rgb(0,0,0)" fill-opacity="1"></path></g></g><g><g><g><g><g transform="matrix(1,0,0,1,429.800048828125,69.99332519531251)"><path transform="matrix(0.01071,0,0,-0.01071,0,0)" d="M168 345C127 326 110 315 88 294C50 256 30 211 30 159C30 56 113 -20 226 -20C356 -20 464 82 464 206C464 286 427 329 313 381C404 443 436 485 436 545C436 631 365 689 259 689C140 689 53 613 53 508C53 440 80 402 168 345ZM284 295C347 267 385 218 385 164C385 80 322 14 241 14C156 14 101 74 101 167C101 240 130 286 204 331ZM223 423C160 454 128 494 128 544C128 610 176 655 247 655C320 655 368 607 368 534C368 477 343 438 278 396Z" stroke="rgb(0,0,0)" stroke-opacity="1" stroke-width="8" fill="rgb(0,0,0)" fill-opacity="1"></path></g></g></g></g></g><g><g transform="matrix(1,0,0,1,436.066650390625,66.483349609375)"><path transform="matrix(0.015300000000000001,0,0,-0.015300000000000001,0,0)" d="M979 103L953 86C924 67 902 56 892 56C885 56 879 65 879 76C879 86 881 95 886 116L961 413C965 430 968 446 968 454C968 471 958 482 942 482C913 482 875 464 814 421C751 376 716 341 667 272L697 409C701 429 704 444 704 451C704 470 694 482 678 482C648 482 602 460 547 418C503 384 483 363 418 275L451 408C455 424 457 439 457 451C457 470 448 482 434 482C413 482 375 461 301 408L273 388L280 368C317 391 352 414 359 414C370 414 377 404 377 389C377 338 336 145 295 2L298 -9L366 6L388 108C412 219 439 278 494 338C536 384 581 414 609 414C616 414 620 406 620 393C620 358 598 244 557 69L541 2L546 -9L615 6L636 113C652 194 686 269 730 318C785 379 835 414 867 414C875 414 880 405 880 389C880 365 877 351 855 264C815 105 799 84 799 31C799 6 810 -9 829 -9C855 -9 891 12 989 85ZM1354 111L1330 94C1277 56 1229 36 1193 36C1146 36 1117 73 1117 133C1117 158 1120 185 1125 214C1142 218 1251 248 1276 259C1361 296 1400 342 1400 404C1400 451 1366 482 1316 482C1248 496 1138 423 1101 349C1071 299 1041 180 1041 113C1041 35 1085 -11 1157 -11C1214 -11 1270 17 1362 92ZM1139 274C1156 343 1176 386 1205 412C1223 428 1254 440 1278 440C1307 440 1326 420 1326 388C1326 344 1291 297 1239 272C1211 258 1175 247 1130 237ZM1445 148C1440 97 1434 62 1423 16C1461 -2 1495 -11 1530 -11C1579 -11 1625 7 1676 47C1727 87 1748 124 1748 174C1748 228 1716 257 1642 271L1599 279C1539 290 1520 307 1520 348C1520 401 1565 442 1622 442C1663 442 1701 424 1717 397L1717 342L1740 342C1744 377 1748 404 1759 455C1720 474 1692 482 1659 482C1607 482 1546 452 1498 404C1472 377 1461 352 1461 316C1461 260 1492 228 1558 215L1621 203C1665 195 1681 177 1681 138C1681 73 1635 29 1564 29C1529 29 1498 40 1470 64L1470 148ZM2038 722L2026 733C1981 711 1940 697 1866 691L1862 670L1910 670C1928 670 1944 667 1944 647C1944 641 1944 632 1942 622L1900 388C1880 272 1838 80 1812 2L1819 -9L1888 7C1896 64 1910 164 1950 236C1995 317 2098 414 2140 414C2151 414 2162 407 2162 393C2162 375 2157 342 2147 303L2096 107C2090 85 2083 55 2083 31C2083 6 2093 -9 2114 -9C2146 -9 2214 41 2273 85L2263 103L2237 86C2214 71 2188 56 2176 56C2169 56 2163 65 2163 76C2163 88 2166 101 2170 116L2234 372C2240 398 2245 423 2245 447C2245 464 2239 482 2213 482C2178 482 2101 437 2033 374C2000 343 1974 308 1946 273L1942 275Z" stroke="rgb(0,0,0)" stroke-opacity="1" stroke-width="8" fill="rgb(0,0,0)" fill-opacity="1"></path></g></g></g><g><g><g transform="matrix(1,0,0,1,420,86.616650390625)"><path transform="matrix(0.015300000000000001,0,0,-0.015300000000000001,0,0)" d="M316 -3C388 -3 437 8 489 34C645 114 741 265 741 431C741 529 711 599 650 642C604 675 519 693 424 692L220 689L210 689C201 689 198 689 97 692L94 664L147 662C171 661 182 653 182 635C182 621 178 589 173 559L86 55C81 31 56 29 33 23L28 -3L121 0L176 0C211 0 282 -3 316 -3ZM384 655C566 655 649 579 649 415C649 225 549 41 329 41C285 41 236 46 168 56C168 68 169 75 172 93L268 650C291 650 349 655 384 655Z" stroke="rgb(0,0,0)" stroke-opacity="1" stroke-width="8" fill="rgb(0,0,0)" fill-opacity="1"></path></g></g><g><g transform="matrix(1,0,0,1,436.4666748046875,86.616650390625)"><path transform="matrix(0.015300000000000001,0,0,-0.015300000000000001,0,0)" d="M604 347L604 406L65 406L65 347ZM604 134L604 193L65 193L65 134Z" stroke="rgb(0,0,0)" stroke-opacity="1" stroke-width="8" fill="rgb(0,0,0)" fill-opacity="1"></path></g></g><g><g transform="matrix(1,0,0,1,451.2666015625,86.616650390625)"><path transform="matrix(0.015300000000000001,0,0,-0.015300000000000001,0,0)" d="M16 23L16 -3C203 -3 203 0 239 0C275 0 275 -3 468 -3L468 82C353 77 307 81 122 77L304 270C401 373 431 428 431 503C431 618 353 689 226 689C154 689 105 669 56 619L39 483L68 483L81 529C97 587 133 612 200 612C286 612 341 558 341 473C341 398 299 324 186 204Z" stroke="rgb(0,0,0)" stroke-opacity="1" stroke-width="8" fill="rgb(0,0,0)" fill-opacity="1"></path></g></g></g></g></svg>
</svg>
